<svg width="323" height="323" viewBox="0 0 323 323" fill="none" xmlns="http://www.w3.org/2000/svg">
<g clip-path="url(#clip0_18001_515)">
<path d="M260.687 75.3047C266.048 69.9434 266.048 61.251 260.687 55.8896C255.325 50.5283 246.633 50.5283 241.272 55.8896C235.91 61.251 235.91 69.9434 241.272 75.3047C246.633 80.666 255.325 80.666 260.687 75.3047Z" fill="#D1D1FF"/>
<path d="M252.394 71.7408V73.6402H249.981V71.8258C248.269 71.7227 246.609 71.2613 245.582 70.6273L246.883 67.6839C248.013 68.3514 249.518 68.7794 250.836 68.7794C251.983 68.7794 252.394 68.5397 252.394 68.1286C252.394 66.6221 245.77 67.8374 245.77 63.3708C245.77 61.4365 247.174 59.81 249.98 59.4171V57.5518H252.394V59.3824C253.66 59.5022 254.893 59.8283 255.869 60.3761L254.653 63.3026C253.471 62.7033 252.359 62.4121 251.316 62.4121C250.134 62.4121 249.758 62.755 249.758 63.166C249.758 64.6028 256.381 63.4057 256.381 67.8207C256.381 69.6686 255.046 71.2783 252.394 71.7408Z" fill="white"/>
<path d="M227.114 92.5631C231.708 92.5631 235.431 88.8397 235.431 84.2465C235.431 79.6534 231.708 75.9299 227.114 75.9299C222.521 75.9299 218.798 79.6534 218.798 84.2465C218.798 88.8397 222.521 92.5631 227.114 92.5631Z" fill="#D1D1FF"/>
<path d="M227.97 87.9695V89.1202H226.508V88.0211C225.471 87.9586 224.466 87.6792 223.843 87.295L224.631 85.512C225.316 85.9164 226.227 86.1756 227.026 86.1756C227.721 86.1756 227.97 86.0304 227.97 85.7814C227.97 84.8687 223.957 85.6049 223.957 82.8991C223.957 81.7272 224.807 80.7421 226.508 80.504V79.374H227.97V80.4829C228.736 80.5556 229.483 80.7531 230.074 81.0848L229.338 82.8577C228.622 82.4947 227.949 82.3183 227.316 82.3183C226.6 82.3183 226.373 82.526 226.373 82.7751C226.373 83.6455 230.385 82.9202 230.385 85.5948C230.385 86.714 229.577 87.6892 227.97 87.9695Z" fill="white"/>
<path d="M255.554 91.0418C256.354 87.5894 254.205 84.1416 250.752 83.3409C247.3 82.5403 243.852 84.69 243.051 88.1424C242.251 91.5948 244.401 95.0426 247.853 95.8432C251.305 96.6439 254.753 94.4942 255.554 91.0418Z" fill="#D1D1FF"/>
<path d="M249.968 92.4528V93.3407H248.84V92.4925C248.04 92.4442 247.264 92.2286 246.784 91.9323L247.392 90.5565C247.92 90.8685 248.624 91.0686 249.24 91.0686C249.776 91.0686 249.968 90.9565 249.968 90.7643C249.968 90.0602 246.872 90.6282 246.872 88.5403C246.872 87.6361 247.528 86.8759 248.84 86.6923V85.8203H249.968V86.6759C250.56 86.732 251.136 86.8844 251.592 87.1404L251.024 88.5085C250.472 88.2284 249.952 88.0921 249.464 88.0921C248.912 88.0921 248.736 88.2523 248.736 88.4445C248.736 89.1162 251.832 88.5566 251.832 90.6203C251.832 91.4841 251.208 92.2365 249.968 92.4528Z" fill="white"/>
<path d="M223.475 61.6121H222.537V68.3381H223.475V61.6121Z" fill="#5E81FF"/>
<path d="M226.369 64.5059H219.643V65.4443H226.369V64.5059Z" fill="#5E81FF"/>
<path d="M231.847 43.6125H230.438V53.7152H231.847V43.6125Z" fill="#5E81FF"/>
<path d="M236.194 47.9592H226.091V49.369H236.194V47.9592Z" fill="#5E81FF"/>
<path d="M263.529 95.2764H262.462V102.926H263.529V95.2764Z" fill="#5E81FF"/>
<path d="M266.821 98.5674H259.171V99.6347H266.821V98.5674Z" fill="#5E81FF"/>
<path opacity="0.4" d="M145.312 77.6984C150.176 72.8347 150.176 64.949 145.312 60.0853C140.449 55.2217 132.563 55.2217 127.699 60.0853C122.836 64.949 122.836 72.8347 127.699 77.6983C132.563 82.562 140.449 82.5621 145.312 77.6984Z" fill="#E5E5FF"/>
<path opacity="0.4" d="M166.23 233.156C173.972 233.156 180.247 226.881 180.247 219.139C180.247 211.398 173.972 205.122 166.23 205.122C158.489 205.122 152.213 211.398 152.213 219.139C152.213 226.881 158.489 233.156 166.23 233.156Z" fill="#E5E5FF"/>
<path d="M140.273 239.698C140.126 239.698 139.979 239.697 139.832 239.695L139.839 239.291C140.504 239.302 141.179 239.287 141.841 239.249L141.865 239.652C141.339 239.682 140.803 239.698 140.273 239.698ZM137.803 239.586C137.129 239.525 136.451 239.437 135.787 239.326L135.854 238.927C136.508 239.037 137.176 239.124 137.84 239.184L137.803 239.586ZM143.888 239.457L143.834 239.057C144.494 238.968 145.158 238.853 145.807 238.715L145.891 239.11C145.232 239.25 144.558 239.367 143.888 239.457ZM133.797 238.913C133.14 238.751 132.483 238.562 131.843 238.351L131.969 237.967C132.599 238.175 133.247 238.362 133.893 238.521L133.797 238.913ZM147.862 238.613L147.748 238.226C148.386 238.038 149.025 237.824 149.647 237.589L149.79 237.967C149.158 238.205 148.51 238.423 147.862 238.613ZM129.936 237.64C129.312 237.38 128.691 237.093 128.089 236.787L128.272 236.427C128.865 236.729 129.477 237.011 130.091 237.267L129.936 237.64ZM151.661 237.176L151.489 236.81C152.091 236.529 152.69 236.221 153.269 235.894L153.467 236.246C152.879 236.577 152.272 236.89 151.661 237.176ZM126.312 235.796C125.736 235.446 125.165 235.068 124.615 234.674L124.851 234.346C125.392 234.734 125.954 235.106 126.522 235.451L126.312 235.796ZM155.198 235.181L154.974 234.846C155.527 234.476 156.072 234.081 156.595 233.672L156.844 233.99C156.313 234.405 155.76 234.806 155.198 235.181ZM123.009 233.428C122.491 232.994 121.983 232.536 121.5 232.065L121.782 231.775C122.258 232.239 122.758 232.691 123.268 233.118L123.009 233.428ZM158.396 232.678L158.124 232.379C158.615 231.932 159.096 231.459 159.552 230.975L159.846 231.252C159.382 231.743 158.895 232.223 158.396 232.678ZM120.098 230.592C119.652 230.086 119.219 229.557 118.811 229.019L119.133 228.775C119.534 229.305 119.961 229.826 120.401 230.325L120.098 230.592ZM161.185 229.721L160.871 229.467C161.291 228.949 161.695 228.41 162.073 227.864L162.405 228.094C162.021 228.648 161.611 229.196 161.185 229.721ZM117.647 227.353C117.28 226.785 116.932 226.197 116.611 225.605L116.966 225.413C117.282 225.996 117.625 226.575 117.986 227.135L117.647 227.353ZM163.499 226.38L163.15 226.175C163.487 225.601 163.806 225.007 164.097 224.409L164.46 224.587C164.164 225.193 163.84 225.797 163.499 226.38ZM115.711 223.784C115.435 223.168 115.179 222.534 114.951 221.9L115.331 221.764C115.556 222.388 115.808 223.012 116.079 223.619L115.711 223.784ZM165.283 222.726L164.908 222.576C165.153 221.958 165.378 221.323 165.576 220.687L165.962 220.807C165.761 221.453 165.532 222.098 165.283 222.726ZM114.337 219.962C114.157 219.312 114.001 218.646 113.872 217.983L114.268 217.906C114.395 218.558 114.55 219.214 114.726 219.855L114.337 219.962ZM166.492 218.844L166.098 218.754C166.247 218.107 166.373 217.445 166.472 216.787L166.872 216.847C166.771 217.516 166.643 218.187 166.492 218.844ZM113.558 215.975C113.479 215.306 113.424 214.624 113.396 213.949L113.799 213.932C113.827 214.597 113.881 215.268 113.959 215.928L113.558 215.975ZM167.099 214.827L166.697 214.797C166.746 214.137 166.771 213.463 166.771 212.796H167.175C167.175 213.473 167.149 214.157 167.099 214.827ZM166.769 212.527C166.763 211.861 166.731 211.188 166.675 210.527L167.077 210.492C167.134 211.163 167.166 211.847 167.173 212.523L166.769 212.527ZM113.79 211.929L113.386 211.916C113.408 211.24 113.455 210.558 113.527 209.888L113.929 209.932C113.858 210.591 113.811 211.263 113.79 211.929ZM166.431 208.54C166.325 207.883 166.192 207.222 166.037 206.577L166.43 206.482C166.587 207.138 166.722 207.808 166.83 208.475L166.431 208.54ZM114.218 207.95L113.821 207.877C113.943 207.212 114.093 206.545 114.266 205.893L114.656 205.997C114.486 206.639 114.339 207.296 114.218 207.95ZM165.494 204.649C165.29 204.017 165.059 203.384 164.807 202.768L165.181 202.615C165.437 203.241 165.672 203.883 165.879 204.525L165.494 204.649ZM115.242 204.082L114.86 203.949C115.083 203.311 115.332 202.674 115.602 202.055L115.972 202.216C115.706 202.826 115.461 203.453 115.242 204.082ZM163.98 200.947C163.683 200.354 163.359 199.764 163.017 199.193L163.363 198.985C163.71 199.565 164.039 200.164 164.341 200.766L163.98 200.947ZM116.842 200.411L116.486 200.222C116.802 199.625 117.145 199.033 117.505 198.462L117.847 198.677C117.492 199.239 117.154 199.823 116.842 200.411ZM161.923 197.516C161.539 196.973 161.13 196.438 160.707 195.926L161.018 195.668C161.448 196.188 161.863 196.731 162.253 197.283L161.923 197.516ZM118.979 197.024L118.655 196.784C119.057 196.241 119.485 195.708 119.927 195.197L120.232 195.462C119.797 195.964 119.375 196.49 118.979 197.024ZM159.374 194.431C158.913 193.952 158.428 193.484 157.933 193.041L158.202 192.74C158.705 193.19 159.197 193.665 159.665 194.151L159.374 194.431ZM121.599 193.998L121.314 193.711C121.794 193.235 122.297 192.772 122.81 192.334L123.072 192.641C122.566 193.072 122.071 193.529 121.599 193.998ZM156.39 191.763C155.863 191.358 155.313 190.968 154.756 190.604L154.977 190.266C155.543 190.636 156.101 191.031 156.636 191.442L156.39 191.763ZM124.642 191.398L124.404 191.072C124.948 190.674 125.514 190.291 126.088 189.935L126.301 190.278C125.736 190.629 125.178 191.006 124.642 191.398ZM153.039 189.571C152.456 189.25 151.853 188.947 151.249 188.672L151.416 188.304C152.03 188.584 152.641 188.892 153.234 189.218L153.039 189.571ZM128.039 189.286L127.853 188.928C128.452 188.616 129.069 188.323 129.688 188.058L129.847 188.429C129.238 188.69 128.629 188.979 128.039 189.286ZM149.394 187.911C148.77 187.682 148.129 187.474 147.49 187.293L147.599 186.905C148.249 187.088 148.899 187.299 149.534 187.532L149.394 187.911ZM131.714 187.712L131.584 187.33C132.223 187.112 132.878 186.916 133.532 186.747L133.633 187.138C132.989 187.304 132.343 187.497 131.714 187.712ZM145.544 186.823C144.894 186.692 144.229 186.584 143.567 186.502L143.617 186.101C144.289 186.184 144.964 186.294 145.624 186.428L145.544 186.823ZM135.589 186.712L135.518 186.314C136.18 186.196 136.857 186.101 137.531 186.033L137.572 186.435C136.908 186.502 136.241 186.595 135.589 186.712ZM141.573 186.33C140.907 186.298 140.233 186.291 139.57 186.308L139.559 185.904C140.232 185.887 140.917 185.894 141.592 185.927L141.573 186.33Z" fill="#5E81FF"/>
<path d="M118.414 80.0992L118.41 79.6955C119.074 79.6895 119.743 79.6439 120.398 79.5598L120.449 79.9602C119.779 80.0464 119.094 80.0932 118.414 80.0992ZM116.375 79.9967C115.7 79.9222 115.023 79.8059 114.364 79.6512L114.456 79.2581C115.1 79.4091 115.761 79.5225 116.42 79.5952L116.375 79.9967ZM122.455 79.5784L122.355 79.1871C122.997 79.0241 123.636 78.8201 124.253 78.5809L124.399 78.9574C123.767 79.2024 123.113 79.4114 122.455 79.5784ZM112.407 79.0654C111.77 78.8319 111.141 78.5569 110.535 78.2476L110.719 77.888C111.31 78.1898 111.925 78.4584 112.546 78.6862L112.407 79.0654ZM126.255 78.1063L126.065 77.7502C126.648 77.4388 127.219 77.0882 127.762 76.7082L127.994 77.0391C127.437 77.4283 126.852 77.7873 126.255 78.1063ZM108.776 77.2108C108.214 76.8322 107.668 76.4152 107.154 75.9713L107.418 75.6655C107.92 76.0992 108.453 76.5063 109.002 76.876L108.776 77.2108ZM129.593 75.7712L129.324 75.4703C129.817 75.0288 130.289 74.5527 130.727 74.0551L131.03 74.3217C130.582 74.8312 130.099 75.319 129.593 75.7712ZM105.692 74.5472C105.235 74.0457 104.803 73.5115 104.41 72.9595L104.738 72.725C105.123 73.264 105.544 73.7855 105.99 74.2754L105.692 74.5472ZM132.284 72.7107L131.952 72.4822C132.327 71.9354 132.673 71.3608 132.979 70.7742L133.337 70.9611C133.023 71.562 132.669 72.1507 132.284 72.7107ZM103.327 71.2299C103.001 70.6342 102.71 70.0131 102.459 69.3835L102.834 69.2341C103.079 69.8486 103.364 70.4551 103.681 71.0365L103.327 71.2299ZM134.172 69.0972L133.794 68.9547C134.028 68.3346 134.226 67.6937 134.383 67.05L134.775 67.1458C134.614 67.8053 134.411 68.4618 134.172 69.0972ZM101.82 67.4447C101.648 66.7892 101.513 66.1157 101.42 65.4431L101.82 65.3879C101.911 66.0445 102.042 66.7018 102.211 67.3417L101.82 67.4447ZM135.139 65.1374L134.738 65.0894C134.816 64.4342 134.856 63.7648 134.856 63.1C134.856 62.8999 134.852 62.6971 134.845 62.4975L135.249 62.483C135.256 62.6876 135.26 62.8951 135.26 63.1C135.26 63.7808 135.219 64.4662 135.139 65.1374ZM101.263 63.4088C101.261 63.3061 101.26 63.2031 101.26 63.0999C101.26 62.5227 101.289 61.9405 101.347 61.3699L101.749 61.4106C101.692 61.9678 101.664 62.5362 101.664 63.1C101.664 63.201 101.665 63.3014 101.667 63.4016L101.263 63.4088ZM134.656 60.5138C134.553 59.8586 134.41 59.2039 134.23 58.5674L134.618 58.4572C134.803 59.1094 134.95 59.7802 135.055 60.4513L134.656 60.5138ZM102.068 59.4435L101.674 59.3549C101.823 58.6921 102.014 58.0318 102.242 57.3928L102.622 57.5283C102.4 58.1522 102.213 58.7966 102.068 59.4435ZM133.571 56.6866C133.316 56.0766 133.02 55.4755 132.692 54.8999L133.043 54.7001C133.379 55.2896 133.682 55.9054 133.944 56.5304L133.571 56.6866ZM103.404 55.6943L103.042 55.5139C103.345 54.9076 103.689 54.3125 104.063 53.7453L104.4 53.9677C104.035 54.5215 103.699 55.1024 103.404 55.6943ZM131.604 53.2309C131.21 52.6991 130.779 52.1852 130.324 51.7035L130.618 51.4262C131.084 51.9196 131.525 52.4457 131.929 52.9905L131.604 53.2309ZM105.596 52.3734L105.288 52.1122C105.727 51.5949 106.201 51.0987 106.699 50.6369L106.973 50.9328C106.488 51.3835 106.024 51.8682 105.596 52.3734ZM128.872 50.3391C128.362 49.915 127.822 49.5176 127.266 49.1577L127.486 48.8188C128.055 49.1873 128.608 49.5943 129.13 50.0287L128.872 50.3391ZM108.512 49.667L108.275 49.3402C108.824 48.9412 109.402 48.5713 109.994 48.2414L110.191 48.5941C109.613 48.9163 109.048 49.2773 108.512 49.667ZM125.531 48.1771C124.935 47.8863 124.315 47.629 123.689 47.4124L123.821 47.031C124.463 47.2529 125.097 47.5164 125.708 47.8144L125.531 48.1771ZM111.985 47.7311L111.833 47.3573C112.461 47.1006 113.111 46.8796 113.766 46.7008L113.872 47.0902C113.233 47.2648 112.599 47.4804 111.985 47.7311ZM121.769 46.8758C121.123 46.7367 120.46 46.6353 119.8 46.5744L119.837 46.1724C120.513 46.2348 121.192 46.3384 121.854 46.481L121.769 46.8758ZM115.822 46.6816L115.764 46.2821C116.432 46.1837 117.117 46.1245 117.797 46.1062L117.808 46.5098C117.143 46.5277 116.475 46.5855 115.822 46.6816Z" fill="#5E81FF"/>
<path d="M50.4684 166.941C47.2403 166.941 44.614 164.315 44.614 161.087C44.614 157.858 47.2403 155.232 50.4684 155.232C53.6965 155.232 56.3228 157.858 56.3228 161.087C56.3228 164.315 53.6965 166.941 50.4684 166.941ZM50.4684 156.04C47.6856 156.04 45.4215 158.304 45.4215 161.087C45.4215 163.869 47.6856 166.133 50.4684 166.133C53.2512 166.133 55.5153 163.869 55.5153 161.087C55.5153 158.304 53.2512 156.04 50.4684 156.04Z" fill="#5E81FF"/>
<path d="M246.287 91.7358H78.4897V215.794H246.287V91.7358Z" fill="white"/>
<path d="M246.691 216.199H78.0859V91.3325H246.691V216.199ZM78.8934 215.391H245.883V92.14H78.8934V215.391Z" fill="#5E81FF"/>
<path d="M103.845 175.502H90.1172V202.067H103.845V175.502Z" fill="#D1D1FF"/>
<path d="M125.647 162.255H111.92V202.067H125.647V162.255Z" fill="#D1D1FF"/>
<path d="M147.45 134.931H133.722V202.067H147.45V134.931Z" fill="#D1D1FF"/>
<path d="M169.252 154.33H155.525V202.068H169.252V154.33Z" fill="#D1D1FF"/>
<path d="M191.055 133.276H177.327V202.067H191.055V133.276Z" fill="#D1D1FF"/>
<path d="M212.857 136.869H199.13V202.067H212.857V136.869Z" fill="#D1D1FF"/>
<path d="M234.66 113.048H220.932V202.067H234.66V113.048Z" fill="#D1D1FF"/>
<path d="M94.2569 191.526L93.8906 190.806L116.819 179.14L140.464 146.934L162.112 169.593L184.367 147.338L205.95 149.96L227.612 125.089L228.221 125.62L206.278 150.813L184.66 148.187L162.099 170.748L140.546 148.188L117.356 179.773L94.2569 191.526Z" fill="#3335CF"/>
<path d="M196.169 107.052H128.608V107.859H196.169V107.052Z" fill="#3335CF"/>
<path d="M173.364 115.934H151.413V116.742H173.364V115.934Z" fill="#3335CF"/>
<path d="M75.7794 239.517C77.0963 232.575 76.2395 225.189 73.376 218.795C70.5124 212.401 65.6581 207.035 59.7583 203.744C62.7469 207.535 63.5171 212.736 63.8199 217.671C64.1227 222.605 64.1007 227.7 65.8911 232.264C67.6815 236.829 71.9076 240.78 76.5299 240.207L75.7794 239.517Z" fill="#3335CF"/>
<path d="M75.8765 241.266C74.5596 234.325 75.4164 226.938 78.2799 220.544C81.1435 214.15 85.9977 208.785 91.8976 205.493C88.909 209.284 88.1388 214.486 87.836 219.42C87.5332 224.355 87.5552 229.449 85.7648 234.014C83.9744 238.578 79.7483 242.529 75.126 241.957L75.8765 241.266Z" fill="#3335CF"/>
<path d="M70.5802 237.965C67.6025 233.009 66.7895 226.648 68.4155 221.028C70.0415 215.408 74.077 210.631 79.1602 208.309C78.0906 215.416 83.3718 222.28 82.4282 229.407C81.8174 234.021 78.3526 238.056 74.0851 239.124L70.5802 237.965Z" fill="#D1D1FF"/>
<path d="M72.7469 247.503C72.7342 240.422 75.1702 233.357 79.581 227.683C83.9917 222.009 90.3524 217.758 97.4243 215.759C93.4089 218.854 91.5124 223.794 90.1775 228.57C88.8425 233.346 87.8272 238.347 84.9539 242.45C82.0807 246.553 76.69 249.548 71.792 248.024L72.7469 247.503Z" fill="#5E81FF"/>
<path d="M74.9731 247.883C74.9849 240.802 72.7483 233.736 68.699 228.063C64.6495 222.389 58.81 218.138 52.3174 216.138C56.0038 219.233 57.7449 224.174 58.9705 228.95C60.1962 233.726 61.1282 238.726 63.7661 242.83C66.4041 246.933 71.3531 249.927 75.8499 248.404L74.9731 247.883Z" fill="#5E81FF"/>
<path d="M86.8524 272.048H61.2747L56.8772 245.415H91.2499L86.8524 272.048Z" fill="white"/>
<path d="M87.1088 272.352H61.0174L56.5198 245.113H91.6063L87.1088 272.352ZM61.5313 271.746H86.5951L90.8926 245.718H57.2338L61.5313 271.746Z" fill="#5E81FF"/>
<path d="M120.73 71.2295H42.7932V132.449H120.73V71.2295Z" fill="white"/>
<path d="M121.134 132.852H42.3899V70.8254H121.134V132.852ZM43.1974 132.045H120.327V71.6329H43.1974V132.045Z" fill="#5E81FF"/>
<path d="M70.9596 81.2588H53.3816V91.2125H70.9596V81.2588Z" fill="#D1D1FF"/>
<path d="M110.351 82.2183H78.3721V82.6419H110.351V82.2183Z" fill="#5E81FF"/>
<path d="M110.351 86.0239H78.3721V86.4475H110.351V86.0239Z" fill="#D1D1FF"/>
<path d="M110.351 89.8293H78.3721V90.253H110.351V89.8293Z" fill="#D1D1FF"/>
<path d="M65.3137 111.071H61.6428V122.443H65.3137V111.071Z" fill="#D1D1FF"/>
<path d="M68.9846 105.537H65.3137V122.443H68.9846V105.537Z" fill="#5E81FF"/>
<path d="M79.0085 103.624H75.3376V122.372H79.0085V103.624Z" fill="#D1D1FF"/>
<path d="M82.6797 115.433H79.0088V122.372H82.6797V115.433Z" fill="#5E81FF"/>
<path d="M92.7043 109.445H89.0334V122.428H92.7043V109.445Z" fill="#D1D1FF"/>
<path d="M96.3755 106.574H92.7046V122.428H96.3755V106.574Z" fill="#5E81FF"/>
<path d="M106.399 113.291H102.729V122.345H106.399V113.291Z" fill="#D1D1FF"/>
<path d="M110.071 100.743H106.4V122.345H110.071V100.743Z" fill="#5E81FF"/>
<path d="M110.071 122.556H53.5603V99.7544H53.9839V122.133H110.071V122.556Z" fill="#5E81FF"/>
<path d="M271.538 261.116L273.96 271.947L257.507 271.916L264.371 265.992L263.866 260.611L271.538 261.116Z" fill="#1B1B43"/>
<path d="M264.56 265.743L264.17 266.207L266.896 268.497L267.285 268.033L264.56 265.743Z" fill="#EBEBFF"/>
<path d="M239.136 260.945L240.348 271.947H222.684L230.759 265.992V260.542L239.136 260.945Z" fill="#1B1B43"/>
<path d="M230.949 265.744L230.559 266.208L233.285 268.498L233.674 268.034L230.949 265.744Z" fill="#EBEBFF"/>
<path d="M274.465 262.428L271.84 262.464L264.052 262.569L259.728 262.63C255.488 247.978 251.519 233.616 248.273 220.046C247.635 217.386 247.026 214.753 246.452 212.161C244.317 202.548 242.613 193.403 241.527 184.928C241.292 183.107 241.087 181.319 240.913 179.562C240.772 178.161 240.65 176.781 240.55 175.42L259.93 178.65C260.123 180.487 260.329 182.328 260.547 184.181C263.466 209.202 268.453 235.498 274.465 262.428Z" fill="#3335CF"/>
<path d="M249.634 178.044L249.02 184.634L246.545 211.152L246.453 212.161L241.761 262.428H227.295C227.581 233.35 228.53 205.709 232.342 185.292C232.62 183.786 232.919 182.324 233.23 180.899L240.913 179.563L249.634 178.044Z" fill="#3335CF"/>
<path d="M243.288 193.417L242.891 193.494L248.408 221.889L248.804 221.812L243.288 193.417Z" fill="#1B1B43"/>
<path opacity="0.3" d="M260.548 184.181L249.02 184.633L241.527 184.928L232.342 185.292C232.62 183.786 232.919 182.324 233.23 180.899L240.913 179.562C240.772 178.161 240.651 176.781 240.55 175.42L259.93 178.65C260.124 180.487 260.33 182.328 260.548 184.181Z" fill="#1B1B43"/>
<path d="M238.985 147.766L246.409 146.838L261.909 150.086L261.998 178.028C262 178.794 261.685 179.527 261.129 180.053C260.616 180.537 259.939 180.807 259.234 180.81L233.23 180.899L228.219 165.771L233.045 151.478L238.985 147.766Z" fill="#5E81FF"/>
<path d="M248.245 153.889C246.642 153.889 245.088 153.319 243.878 152.18L244.085 151.959C246.392 154.13 250.015 154.126 252.702 151.952L252.892 152.187C251.491 153.321 249.844 153.889 248.245 153.889Z" fill="#1B1B43"/>
<path d="M264.841 152.206C264.276 149.657 262.183 147.729 259.596 147.373L249.702 146.013L255.691 156.242L257.541 162.643L266.866 161.328L264.841 152.206Z" fill="#5E81FF"/>
<path d="M268.861 172.27C268.626 175.731 266.535 177.204 263.878 177.81C261.109 178.44 257.729 178.129 255.19 178.137C251.015 178.149 246.84 177.967 242.669 177.741L232.071 177.842L230.86 175.957C232.24 174.007 235.975 171.451 242.5 172.997L259.425 169.162L257.539 162.641L266.866 161.329L268.776 169.941C268.889 170.805 268.913 171.576 268.861 172.27Z" fill="#FFBC96"/>
<path d="M223.39 165.225L230.052 173.603L231.264 173.906L232.262 164.155L225.445 160.938L223.39 165.225Z" fill="#FFBC96"/>
<path d="M245.597 145.946L235.868 147.485C233.175 147.912 230.863 149.634 229.684 152.093L225.445 160.938L232.262 164.155L232.98 157.15L245.597 145.946Z" fill="#5E81FF"/>
<path opacity="0.2" d="M268.861 172.271C268.627 175.731 266.535 177.204 263.879 177.81C263.35 177.16 263.027 176.328 263.027 175.42C263.027 173.341 264.715 171.653 266.794 171.653C267.557 171.653 268.268 171.883 268.861 172.271Z" fill="#FE5B52"/>
<path d="M232.849 157.128L230.72 175.935L231.021 175.969L233.15 157.162L232.849 157.128Z" fill="#1B1B43"/>
<path d="M255.845 156.202L255.554 156.286L259.288 169.207L259.579 169.123L255.845 156.202Z" fill="#1B1B43"/>
<path d="M251.897 123.844C251.845 123.162 251.877 122.46 252.087 121.791C252.292 121.126 252.726 120.503 253.345 120.137C253.653 119.956 253.994 119.833 254.345 119.773C254.695 119.712 255.052 119.712 255.402 119.753C256.102 119.835 256.775 120.089 257.365 120.47C257.955 120.851 258.462 121.38 258.774 122.022C259.092 122.66 259.161 123.425 258.962 124.107C258.767 124.794 258.356 125.385 257.881 125.885C257.396 126.379 256.844 126.796 256.261 127.154L256.197 127.055C256.749 126.665 257.279 126.239 257.726 125.74C258.173 125.246 258.545 124.673 258.707 124.038C258.87 123.408 258.811 122.729 258.514 122.148C258.227 121.564 257.75 121.081 257.201 120.721C256.652 120.36 256.02 120.115 255.368 120.035C254.718 119.95 254.041 120.042 253.474 120.358C252.906 120.676 252.496 121.232 252.281 121.857C252.17 122.169 252.1 122.497 252.058 122.829C252.018 123.163 252.012 123.5 252.015 123.838L251.897 123.844Z" fill="#1B1B43"/>
<path d="M255.201 127.237C256.989 127.237 258.438 125.788 258.438 124C258.438 122.212 256.989 120.762 255.201 120.762C253.413 120.762 251.964 122.212 251.964 124C251.964 125.788 253.413 127.237 255.201 127.237Z" fill="#1B1B43"/>
<path d="M257.653 141.909L255.917 139.252L256.587 142.191L250.596 143.774L239.339 144.23L240.247 135.295C237.373 133.882 235.334 124.773 246.247 123.239C248.23 122.961 250.264 123.138 252.106 123.917C257.718 126.292 259.615 132.586 260.132 141.255L257.653 141.909Z" fill="#1B1B43"/>
<path d="M248.299 151.363C245.87 151.363 243.901 149.394 243.901 146.966V137.434H252.696V146.966C252.696 149.394 250.727 151.363 248.299 151.363Z" fill="#FFBC96"/>
<path d="M249.856 141.438C248.914 144.213 246.709 145.512 243.9 146.216V142.077L249.856 141.438Z" fill="#1B1B43"/>
<path d="M252.509 128.181L252.225 140.529C252.225 140.529 247.034 144.307 243.4 143.221C242.181 142.858 241.353 141.473 240.792 139.749C240.526 138.929 240.32 138.029 240.158 137.124C239.589 133.874 239.617 130.555 239.617 130.555L252.509 128.181Z" fill="#FFBC96"/>
<path d="M241.89 135.775C241.89 136.143 241.669 136.44 241.398 136.44C241.126 136.44 240.906 136.143 240.906 135.775C240.906 135.408 241.126 135.111 241.398 135.111C241.669 135.111 241.89 135.408 241.89 135.775Z" fill="#1B1B43"/>
<path d="M245.134 136.253C245.441 136.253 245.689 135.908 245.689 135.483C245.689 135.058 245.441 134.713 245.134 134.713C244.827 134.713 244.579 135.058 244.579 135.483C244.579 135.908 244.827 136.253 245.134 136.253Z" fill="#1B1B43"/>
<path d="M246.945 133.916C246.925 134.105 246.294 134.148 245.594 134.026C244.894 133.903 244.297 133.939 244.41 133.473C244.502 133.092 245.055 133.125 245.755 133.247C246.456 133.369 246.963 133.751 246.945 133.916Z" fill="#1B1B43"/>
<path d="M240.095 134.34C240.12 134.526 240.657 134.518 241.247 134.339C241.837 134.16 242.345 134.147 242.23 133.692C242.137 133.32 241.668 133.398 241.079 133.577C240.489 133.756 240.074 134.177 240.095 134.34Z" fill="#1B1B43"/>
<path opacity="0.2" d="M249.357 137.089C249.357 137.883 248.713 138.527 247.919 138.527C247.124 138.527 246.48 137.883 246.48 137.089C246.48 136.295 247.124 135.651 247.919 135.651C248.713 135.651 249.357 136.295 249.357 137.089Z" fill="#FE5B52"/>
<path opacity="0.2" d="M241.434 138.554C241.434 139.054 241.18 139.49 240.792 139.749C240.526 138.929 240.32 138.029 240.158 137.124C240.877 137.205 241.434 137.815 241.434 138.554Z" fill="#FE5B52"/>
<path d="M243.026 136.363C243.042 136.49 243.011 136.623 242.962 136.739C242.912 136.855 242.846 136.956 242.779 137.048C242.647 137.233 242.518 137.394 242.484 137.539C242.467 137.609 242.472 137.682 242.491 137.756C242.507 137.827 242.547 137.892 242.605 137.955C242.722 138.079 242.906 138.174 243.106 138.247L243.091 138.404C242.854 138.432 242.595 138.387 242.373 138.223C242.262 138.141 242.168 138.02 242.117 137.88C242.074 137.742 242.054 137.588 242.095 137.441C242.178 137.152 242.367 136.979 242.515 136.827C242.67 136.672 242.802 136.54 242.868 136.352L243.026 136.363Z" fill="#1B1B43"/>
<path d="M242.645 139.638C243.175 141.328 245.446 140.47 245.623 138.881L242.645 139.638Z" fill="white"/>
<path d="M239.187 132.522C242.987 132.515 246.176 132.165 249.18 130.705C249.504 133.184 250.568 134.381 252.006 135.045L255.034 132.522L253.47 127.424L245.243 126.97L238.884 130.15L239.187 132.522Z" fill="#1B1B43"/>
<path d="M254.389 136.85C255.208 135.687 255.215 134.282 254.406 133.712C253.596 133.143 252.276 133.624 251.458 134.788C250.639 135.951 250.632 137.356 251.442 137.926C252.251 138.495 253.571 138.014 254.389 136.85Z" fill="#FFBC96"/>
<path d="M252.209 136.657C252.151 136.448 252.133 136.226 252.159 136.001C252.184 135.777 252.26 135.546 252.398 135.348C252.536 135.15 252.734 134.996 252.947 134.907C253.16 134.815 253.386 134.78 253.604 134.794L253.631 134.949C253.443 135.038 253.266 135.12 253.112 135.221C252.958 135.321 252.828 135.439 252.726 135.58C252.623 135.72 252.553 135.888 252.497 136.068C252.442 136.25 252.407 136.445 252.367 136.65L252.209 136.657Z" fill="#1B1B43"/>
<path d="M256.229 127.104C255.81 126.86 255.451 126.578 255.096 126.3L254.072 125.455C253.736 125.176 253.403 124.901 253.057 124.636C252.712 124.366 252.355 124.116 251.956 123.841C252.441 123.788 252.927 123.903 253.372 124.085C253.818 124.271 254.225 124.532 254.589 124.835C254.953 125.139 255.274 125.486 255.553 125.862C255.828 126.243 256.069 126.646 256.229 127.104Z" fill="#FFA121"/>
<path d="M241.895 177.775H231.196V180.938H241.895V177.775Z" fill="#1B1B43"/>
<path d="M234.628 180.939H210.403L199.771 157.975H223.996L234.628 180.939Z" fill="#EBEBFF"/>
<path d="M225.661 179.911C225.093 180.015 224.754 180.481 224.727 181.034V178.531C224.727 178.026 224.367 177.566 223.866 177.509C223.292 177.444 222.807 177.878 222.78 178.431V177.422C222.78 176.912 222.413 176.447 221.905 176.396C221.321 176.337 220.828 176.794 220.828 177.367V178.431C220.801 177.878 220.317 177.444 219.743 177.509C219.241 177.566 218.881 178.026 218.881 178.531V180.517C218.855 180.01 218.468 179.38 217.94 179.331C216.855 179.23 217.093 181.137 217.093 181.137C217.41 183.066 217.98 183.278 219.136 183.361C220.94 183.49 222.767 183.485 224.616 183.36C225.778 183.281 225.961 183.156 226.469 181.426C226.64 180.682 226.494 179.76 225.661 179.911Z" fill="#FFBC96"/>
<path d="M218.908 179.153C218.988 179.561 219.018 179.97 219.033 180.379C219.039 180.584 219.04 180.788 219.032 180.993C219.024 181.199 219.009 181.404 218.975 181.61L218.857 181.613C218.811 181.409 218.785 181.205 218.766 181.001C218.747 180.796 218.736 180.592 218.732 180.387C218.724 179.978 218.731 179.568 218.789 179.157L218.908 179.153Z" fill="#D28572"/>
<path d="M220.888 178.43C220.969 178.863 220.999 179.297 221.015 179.731C221.022 179.948 221.023 180.166 221.016 180.384C221.008 180.601 220.994 180.819 220.96 181.037L220.841 181.04C220.796 180.824 220.769 180.608 220.75 180.391C220.73 180.174 220.719 179.957 220.714 179.739C220.706 179.305 220.712 178.87 220.769 178.433L220.888 178.43Z" fill="#D28572"/>
<path d="M222.839 178.429C222.926 178.838 222.962 179.25 222.984 179.661C222.993 179.868 222.997 180.074 222.992 180.28C222.988 180.487 222.976 180.694 222.945 180.902L222.827 180.907C222.778 180.702 222.749 180.497 222.727 180.292C222.704 180.086 222.691 179.88 222.683 179.674C222.669 179.262 222.669 178.849 222.721 178.434L222.839 178.429Z" fill="#D28572"/>
<path d="M225.367 180.036C225.277 180.153 225.213 180.295 225.151 180.44C225.091 180.586 225.034 180.736 224.978 180.888C224.921 181.039 224.864 181.191 224.802 181.343C224.74 181.495 224.674 181.647 224.592 181.795L224.478 181.763C224.483 181.593 224.51 181.427 224.548 181.263C224.586 181.099 224.635 180.938 224.696 180.78C224.758 180.623 224.829 180.467 224.922 180.32C225.015 180.176 225.127 180.025 225.3 179.939L225.367 180.036Z" fill="#D28572"/>
<path d="M275.657 128.235V139.322L270.543 142.956H275.657H294.682V128.235H275.657Z" fill="white"/>
<path d="M294.884 143.158H269.911L275.456 139.218V128.033H294.884V143.158ZM271.176 142.754H294.48V128.437H275.86V139.427L271.176 142.754Z" fill="#5E81FF"/>
<path d="M284.911 139.509L281.804 136.518L282.364 135.936L284.708 138.194L288.695 130.886L289.403 131.273L284.911 139.509Z" fill="#5E81FF"/>
<path d="M295.354 271.746H34.3613V272.351H295.354V271.746Z" fill="#1B1B43"/>
</g>
<defs>
<clipPath id="clip0_18001_515">
<rect width="323" height="323" fill="white"/>
</clipPath>
</defs>
</svg>
