<svg width="309" height="206" viewBox="0 0 309 206" fill="none" xmlns="http://www.w3.org/2000/svg">
<g clip-path="url(#clip0_18001_670)">
<mask id="mask0_18001_670" style="mask-type:luminance" maskUnits="userSpaceOnUse" x="26" y="15" width="257" height="176">
<path d="M255.43 182.475C248.077 184.83 239.121 185.468 232.007 184.977C232.007 184.977 101.228 197.575 53.9543 184.659C18.9671 175.099 23.1908 141.068 33.898 119.285C44.7272 97.2547 16.3005 54.67 61.9962 29.9765C88.2796 15.7731 111.854 38.5022 157.291 21.7226C198.314 6.57345 251.231 20.1236 264.171 51.8958C273.073 73.7525 261.851 97.3133 273.073 108.733C291.273 127.255 282.904 173.676 255.43 182.475Z" fill="white"/>
</mask>
<g mask="url(#mask0_18001_670)">
<path d="M255.429 182.475C248.077 184.83 239.121 185.468 232.007 184.977C232.007 184.977 101.227 197.575 53.954 184.659C18.9669 175.099 23.1906 141.068 33.8977 119.285C44.727 97.2547 16.3003 54.67 61.9959 29.9765C88.2794 15.7731 111.854 38.5022 157.291 21.7226C198.314 6.57345 251.231 20.1236 264.171 51.8958C273.073 73.7525 261.851 97.3133 273.072 108.733C291.273 127.255 282.904 173.676 255.429 182.475Z" fill="#DAE6FF"/>
</g>
<mask id="mask1_18001_670" style="mask-type:luminance" maskUnits="userSpaceOnUse" x="26" y="15" width="257" height="176">
<path d="M255.43 182.475C248.077 184.83 239.121 185.468 232.007 184.977C232.007 184.977 101.228 197.575 53.9543 184.659C18.9671 175.099 23.1908 141.068 33.898 119.285C44.7272 97.2547 16.3005 54.67 61.9962 29.9765C88.2796 15.7731 111.854 38.5022 157.291 21.7226C198.314 6.57345 251.231 20.1236 264.171 51.8958C273.073 73.7525 261.851 97.3133 273.073 108.733C291.273 127.255 282.904 173.676 255.43 182.475Z" fill="white"/>
</mask>
<g mask="url(#mask1_18001_670)">
<path d="M251.891 195.883C251.916 195.879 251.942 195.872 251.967 195.862C252.171 195.786 252.274 195.558 252.198 195.355C232.186 142.108 214.727 104.74 203.036 90.1354C202.777 89.8112 202.589 89.5771 202.516 89.457C202.402 89.2712 202.158 89.2139 201.973 89.327C201.788 89.4411 201.73 89.6837 201.843 89.8694C201.943 90.0313 202.123 90.256 202.421 90.6282C214.061 105.17 231.476 142.461 251.46 195.632C251.527 195.81 251.709 195.912 251.891 195.883Z" fill="#BBCFF8"/>
<path d="M195.417 87.8417C196.795 89.4763 203.361 92.2043 203.828 91.8107C204.294 91.4173 202.715 84.4851 201.336 82.8505C199.958 81.2158 197.516 81.0082 195.881 82.3864C194.246 83.7646 194.039 86.2071 195.417 87.8417Z" fill="#BBCFF8"/>
<path d="M208.036 92.2426C207.549 94.3751 209.364 101.419 209.973 101.558C210.581 101.697 215.272 96.1375 215.759 94.0047C216.245 91.8721 214.911 89.7487 212.778 89.2621C210.646 88.7758 208.522 90.1099 208.036 92.2426Z" fill="#BBCFF8"/>
<path d="M201.304 105.23C203.492 105.224 209.946 101.87 209.944 101.245C209.943 100.621 203.47 97.3026 201.282 97.3086C199.095 97.3147 197.327 99.093 197.333 101.28C197.339 103.468 199.117 105.236 201.304 105.23Z" fill="#BBCFF8"/>
<path d="M229.132 127.005C227.934 130.476 229.688 142.559 230.678 142.901C231.669 143.243 240.502 134.814 241.7 131.344C242.898 127.873 241.056 124.088 237.585 122.89C234.114 121.692 230.33 123.535 229.132 127.005Z" fill="#BBCFF8"/>
<path d="M215.549 147.46C219.2 147.846 230.578 143.416 230.688 142.374C230.798 141.332 220.596 134.623 216.945 134.238C213.294 133.852 210.021 136.499 209.636 140.151C209.25 143.802 211.897 147.075 215.549 147.46Z" fill="#BBCFF8"/>
<path d="M239.573 139.953C237.208 143.774 236.047 158.67 237.138 159.345C238.228 160.02 251.043 152.338 253.408 148.517C255.773 144.697 254.593 139.682 250.772 137.318C246.952 134.953 241.938 136.133 239.573 139.953Z" fill="#BBCFF8"/>
<path d="M219.99 166.848C224.483 166.857 237.774 160.033 237.777 158.75C237.779 157.468 224.517 150.586 220.024 150.577C215.531 150.567 211.881 154.202 211.871 158.695C211.862 163.188 215.497 166.838 219.99 166.848Z" fill="#BBCFF8"/>
<path d="M246.664 157.278C244.299 161.099 243.139 175.995 244.229 176.67C245.32 177.344 258.134 169.662 260.499 165.842C262.864 162.022 261.684 157.007 257.863 154.643C254.043 152.278 249.029 153.458 246.664 157.278Z" fill="#BBCFF8"/>
<path d="M227.081 184.173C231.574 184.183 244.866 177.358 244.868 176.075C244.871 174.793 231.609 167.912 227.116 167.902C222.623 167.892 218.973 171.527 218.963 176.02C218.953 180.513 222.588 184.163 227.081 184.173Z" fill="#BBCFF8"/>
<path d="M261.091 178.677C257.449 181.309 250.702 194.64 251.453 195.679C252.204 196.718 266.98 194.497 270.621 191.865C274.263 189.233 275.082 184.147 272.45 180.506C269.818 176.864 264.733 176.045 261.091 178.677Z" fill="#BBCFF8"/>
<path d="M233.479 201.35C237.935 201.922 251.976 196.812 252.139 195.54C252.302 194.268 240.004 185.783 235.547 185.211C231.091 184.64 227.015 187.79 226.444 192.247C225.872 196.703 229.022 200.779 233.479 201.35Z" fill="#BBCFF8"/>
<path d="M214.55 103.07C214.055 105.236 215.899 112.393 216.517 112.534C217.136 112.675 221.902 107.027 222.396 104.86C222.891 102.694 221.535 100.536 219.368 100.042C217.202 99.5473 215.044 100.903 214.55 103.07Z" fill="#BBCFF8"/>
<path d="M208.006 116.381C210.229 116.374 216.786 112.967 216.785 112.332C216.783 111.698 210.206 108.326 207.984 108.333C205.762 108.339 203.965 110.145 203.971 112.368C203.977 114.59 205.784 116.387 208.006 116.381Z" fill="#BBCFF8"/>
<path d="M221.823 113.042C220.871 116.053 222.647 126.401 223.507 126.673C224.366 126.944 231.772 119.502 232.725 116.492C233.677 113.481 232.009 110.269 228.999 109.316C225.988 108.364 222.776 110.032 221.823 113.042Z" fill="#BBCFF8"/>
<path d="M211.103 132.063C214.26 132.054 223.577 127.212 223.574 126.311C223.572 125.41 214.229 120.62 211.071 120.629C207.914 120.638 205.361 123.204 205.37 126.362C205.379 129.519 207.945 132.072 211.103 132.063Z" fill="#BBCFF8"/>
<path d="M74.0955 198.104C74.083 198.104 74.0703 198.102 74.0575 198.098C73.9553 198.072 73.8937 197.968 73.9202 197.865C80.8224 171.143 87.3139 152.214 92.1989 144.564C92.3074 144.395 92.3858 144.272 92.4149 144.21C92.4604 144.115 92.5747 144.075 92.6698 144.119C92.7653 144.165 92.8059 144.279 92.7606 144.374C92.721 144.458 92.6457 144.575 92.5213 144.77C87.6576 152.387 81.183 171.277 74.2906 197.961C74.2675 198.051 74.1845 198.109 74.0955 198.104Z" fill="#8DACE2"/>
<path d="M95.7563 143.065C95.1759 143.924 92.1494 145.58 91.904 145.414C91.6585 145.249 92.0623 141.823 92.6428 140.963C93.2233 140.103 94.3908 139.877 95.2506 140.457C96.1102 141.037 96.3368 142.205 95.7563 143.065Z" fill="#8DACE2"/>
<path d="M89.896 145.84C90.2409 146.844 89.7296 150.336 89.443 150.434C89.1565 150.533 86.6063 148.093 86.2614 147.089C85.9163 146.086 86.4504 144.992 87.454 144.647C88.4577 144.302 89.551 144.836 89.896 145.84Z" fill="#8DACE2"/>
<path d="M93.8145 151.757C92.759 151.867 89.472 150.582 89.4404 150.281C89.409 149.98 92.3602 148.044 93.4157 147.934C94.4714 147.824 95.4164 148.591 95.5265 149.646C95.6365 150.702 94.8701 151.647 93.8145 151.757Z" fill="#8DACE2"/>
<path d="M81.5158 163.7C82.2731 165.313 82.0514 171.232 81.5911 171.449C81.1309 171.665 76.4339 168.055 75.6766 166.443C74.9193 164.83 75.6125 162.909 77.2251 162.152C78.8374 161.395 80.7586 162.088 81.5158 163.7Z" fill="#8DACE2"/>
<path d="M89.1253 172.866C87.3838 173.241 81.6661 171.692 81.5592 171.195C81.4522 170.698 86.0268 166.934 87.7684 166.56C89.51 166.185 91.2256 167.293 91.6003 169.034C91.975 170.776 90.8669 172.492 89.1253 172.866Z" fill="#8DACE2"/>
<path d="M77.1478 170.487C78.4861 172.207 79.8158 179.334 79.3247 179.716C78.8335 180.098 72.2544 177.054 70.916 175.333C69.5777 173.612 69.8878 171.132 71.6088 169.794C73.3295 168.456 75.8094 168.766 77.1478 170.487Z" fill="#8DACE2"/>
<path d="M87.9851 182.448C85.8181 182.685 79.0532 180.08 78.9857 179.461C78.9181 178.843 84.9603 174.838 87.1274 174.601C89.2944 174.364 91.2433 175.929 91.4802 178.096C91.717 180.263 90.1522 182.212 87.9851 182.448Z" fill="#8DACE2"/>
<path d="M74.6219 179.211C75.9602 180.932 77.29 188.058 76.7989 188.44C76.3077 188.822 69.7284 185.778 68.3902 184.058C67.0518 182.337 67.362 179.857 69.0828 178.519C70.8036 177.18 73.2836 177.49 74.6219 179.211Z" fill="#8DACE2"/>
<path d="M85.4595 191.173C83.2923 191.41 76.5276 188.805 76.46 188.186C76.3924 187.568 82.4347 183.562 84.6018 183.325C86.7688 183.089 88.7176 184.653 88.9545 186.82C89.1912 188.988 87.6265 190.936 85.4595 191.173Z" fill="#8DACE2"/>
<path d="M68.7682 190.28C70.6611 191.361 74.605 197.444 74.2963 197.984C73.9877 198.524 66.745 198.216 64.8522 197.135C62.9593 196.053 62.3015 193.642 63.3828 191.749C64.4642 189.856 66.8753 189.198 68.7682 190.28Z" fill="#8DACE2"/>
<path d="M87.3135 151.399C87.664 152.419 87.1444 155.967 86.8534 156.067C86.5623 156.167 83.9711 153.688 83.6207 152.669C83.2702 151.649 83.8127 150.538 84.8324 150.188C85.8521 149.837 86.9629 150.38 87.3135 151.399Z" fill="#8DACE2"/>
<path d="M91.1578 157.483C90.0853 157.595 86.7457 156.29 86.7136 155.984C86.6817 155.677 89.6801 153.711 90.7526 153.599C91.825 153.487 92.7852 154.266 92.897 155.338C93.009 156.411 92.2303 157.371 91.1578 157.483Z" fill="#8DACE2"/>
<path d="M84.3198 156.586C84.9349 157.989 84.6126 163.073 84.2122 163.249C83.8117 163.424 79.8541 160.217 79.239 158.814C78.6239 157.411 79.2626 155.775 80.6657 155.159C82.0686 154.544 83.7046 155.183 84.3198 156.586Z" fill="#8DACE2"/>
<path d="M90.4742 165.208C88.9506 165.367 84.2058 163.513 84.1605 163.078C84.1151 162.643 88.375 159.849 89.8986 159.69C91.4223 159.532 92.7864 160.638 92.9453 162.161C93.1043 163.685 91.9979 165.049 90.4742 165.208Z" fill="#8DACE2"/>
<path d="M46.091 184.749C46.0726 184.75 46.0538 184.75 46.0346 184.748C45.8806 184.729 45.771 184.589 45.79 184.435C50.7108 144.21 56.5291 115.409 62.1725 103.335C62.2979 103.067 62.3884 102.874 62.4191 102.778C62.467 102.63 62.6256 102.55 62.7728 102.597C62.9205 102.645 63.0015 102.803 62.9538 102.951C62.9122 103.079 62.8252 103.265 62.6815 103.573C57.0624 115.594 51.2614 144.336 46.3474 184.503C46.3309 184.638 46.2214 184.739 46.091 184.749Z" fill="#BBCFF8"/>
<path d="M67.0631 100.469C66.3831 101.832 62.2948 104.822 61.9058 104.628C61.5166 104.434 61.4472 99.369 62.1274 98.0059C62.8073 96.6428 64.4635 96.0893 65.8265 96.7692C67.1893 97.4493 67.7431 99.1055 67.0631 100.469Z" fill="#BBCFF8"/>
<path d="M59.0645 105.633C59.7593 107.028 59.6849 112.209 59.2866 112.408C58.8885 112.606 54.7081 109.544 54.0132 108.149C53.3183 106.754 53.8859 105.06 55.2808 104.365C56.6757 103.671 58.3697 104.238 59.0645 105.633Z" fill="#BBCFF8"/>
<path d="M65.9042 113.496C64.3887 113.858 59.3571 112.619 59.2535 112.186C59.1499 111.754 63.0747 108.37 64.5902 108.007C66.1058 107.645 67.6285 108.579 67.9915 110.094C68.3541 111.61 67.4197 113.133 65.9042 113.496Z" fill="#BBCFF8"/>
<path d="M50.2914 133.242C51.7033 135.444 52.5162 144.104 51.8877 144.507C51.2592 144.91 43.729 140.556 42.3173 138.354C40.9055 136.152 41.5461 133.223 43.7482 131.811C45.9501 130.399 48.8797 131.04 50.2914 133.242Z" fill="#BBCFF8"/>
<path d="M63.1277 145.125C60.6643 146.005 52.0438 144.847 51.7926 144.144C51.5414 143.441 57.479 137.084 59.9423 136.204C62.4058 135.325 65.1158 136.609 65.9954 139.072C66.875 141.535 65.5912 144.245 63.1277 145.125Z" fill="#BBCFF8"/>
<path d="M45.2348 143.959C47.5131 146.207 50.8163 156.326 50.1746 156.976C49.5328 157.627 39.3713 154.458 37.0928 152.21C34.8143 149.961 34.79 146.292 37.0385 144.013C39.2868 141.735 42.9565 141.711 45.2348 143.959Z" fill="#BBCFF8"/>
<path d="M63.3062 159.293C60.197 160.054 49.8493 157.559 49.6322 156.671C49.4151 155.784 57.4427 148.794 60.552 148.034C63.6613 147.273 66.7984 149.177 67.5591 152.286C68.3195 155.395 66.4155 158.533 63.3062 159.293Z" fill="#BBCFF8"/>
<path d="M43.2319 157.143C45.5104 159.392 48.8135 169.51 48.1719 170.161C47.53 170.811 37.3683 167.642 35.0901 165.394C32.8116 163.146 32.7874 159.476 35.0357 157.198C37.2839 154.919 40.9536 154.895 43.2319 157.143Z" fill="#BBCFF8"/>
<path d="M61.3039 172.478C58.1945 173.239 47.8468 170.744 47.6298 169.856C47.4127 168.969 55.4402 161.979 58.5496 161.219C61.6588 160.458 64.7959 162.362 65.5565 165.471C66.3171 168.581 64.4131 171.718 61.3039 172.478Z" fill="#BBCFF8"/>
<path d="M36.8339 174.38C39.797 175.591 46.7053 183.689 46.3596 184.535C46.0141 185.381 35.4113 186.321 32.4485 185.11C29.4853 183.899 28.0651 180.515 29.2761 177.552C30.4871 174.589 33.8709 173.169 36.8339 174.38Z" fill="#BBCFF8"/>
<path d="M59.7566 185.446C56.7667 186.589 46.1884 185.407 45.862 184.554C45.5357 183.701 52.6264 175.762 55.6162 174.619C58.6061 173.475 61.9566 174.972 63.0999 177.962C64.2431 180.952 62.7463 184.302 59.7566 185.446Z" fill="#BBCFF8"/>
<path d="M56.3715 114.222C57.0775 115.639 57.0017 120.904 56.5973 121.105C56.1927 121.307 51.9451 118.196 51.2394 116.778C50.5334 115.361 51.11 113.64 52.5273 112.934C53.9445 112.228 55.6656 112.805 56.3715 114.222Z" fill="#BBCFF8"/>
<path d="M63.1355 122.341C61.5957 122.709 56.4835 121.45 56.3783 121.011C56.2731 120.571 60.2606 117.133 61.8005 116.764C63.3402 116.396 64.8874 117.345 65.256 118.885C65.6247 120.425 64.6752 121.972 63.1355 122.341Z" fill="#BBCFF8"/>
<path d="M53.0085 122.348C54.1732 124.272 54.6793 131.735 54.1301 132.068C53.5808 132.4 47.2042 128.49 46.0395 126.566C44.8749 124.641 45.4906 122.137 47.4153 120.972C49.3396 119.808 51.8437 120.424 53.0085 122.348Z" fill="#BBCFF8"/>
<path d="M63.6223 133.718C61.4348 134.242 54.1719 132.453 54.0224 131.828C53.8728 131.204 59.5383 126.32 61.7258 125.796C63.9134 125.272 66.1114 126.621 66.6351 128.809C67.1589 130.996 65.81 133.194 63.6223 133.718Z" fill="#BBCFF8"/>
<path d="M123.739 156.698C123.739 156.698 127.32 149.704 126.916 147.042C126.511 144.38 124.332 136.814 124.901 133.993C125.078 133.115 126.93 126.388 128.607 125.471C129.74 124.851 132.239 127.397 131.362 130.835C129.838 136.813 131.655 140.334 132.641 142.873C134.322 147.204 134.97 149.785 135.024 147.682C135.024 147.682 134.238 141.204 134.546 138.381C134.629 137.618 136.313 131.766 137.93 131.228C138.805 130.937 141.549 132.394 140.468 137.773C139.758 141.309 141.74 143.628 143.193 146.072C144.451 148.187 150.587 153.549 150.587 153.549L142.288 159.869L123.739 156.698Z" fill="#E96F5F"/>
<path d="M118.4 145.281C118.4 145.281 114.495 134.213 114.201 129.667C114.083 127.843 114.261 121.829 115.752 120.785C118.213 119.062 121.034 123.379 120.773 128.897C120.514 134.373 125.855 138.666 128.428 142.28C134.823 151.265 138.677 156.673 138.677 156.673L118.4 145.281Z" fill="#F78978"/>
<path d="M130.799 105.736C129.972 104.91 131.625 104.762 131.625 103.03V101.496C131.625 96.5412 132.746 92.4317 134.988 89.1674C137.229 85.903 140.867 82.6968 145.902 79.5502C148.733 77.8998 150.798 76.5615 152.097 75.5387C153.395 74.5159 154.318 73.4549 154.869 72.3524C155.419 71.2515 155.695 69.8352 155.695 68.1051C155.695 65.1944 154.612 62.9528 152.45 61.3788C150.287 59.8064 147.16 59.0193 143.071 59.0193C136.62 59.0193 130.839 60.7113 125.726 64.0935C124.781 64.6448 124.152 64.9188 123.838 64.9188C123.129 64.9188 120.596 63.7942 120.125 62.9276L117.466 55.7152C117.15 55.1656 116.994 54.6941 116.994 54.2989C116.994 53.5916 117.426 52.9622 118.293 52.411C125.607 47.4564 134.692 44.979 145.548 44.979C154.358 44.979 161.476 47.0047 166.904 51.0561C172.332 55.1075 175.047 60.7512 175.047 67.9872C175.047 72.7061 173.944 76.5998 171.743 79.6682C169.539 82.7366 165.999 85.6473 161.123 88.4002C157.267 90.6019 154.632 92.6475 153.218 94.5354C151.801 96.4233 151.094 98.8226 151.094 101.733V103.03C151.094 104.762 150.7 106.04 149.913 106.866C149.126 107.692 147.75 108.104 145.784 108.104H136.934C135.046 108.104 131.624 106.563 130.799 105.736ZM130.799 124.454C129.58 123.471 130.799 123.207 130.799 121.555V119.078C130.799 117.348 131.408 115.989 132.627 115.007C133.845 114.024 135.597 113.532 137.879 113.532H144.723C147.081 113.532 148.87 114.024 150.089 115.007C151.308 115.989 151.919 117.348 151.919 119.078V121.555C151.919 123.285 151.308 124.624 150.089 125.567C148.87 126.512 147.081 126.983 144.723 126.983H137.879C135.597 126.983 132.017 125.437 130.799 124.454Z" fill="#4E6BD2"/>
<path d="M214.213 161.478C211.418 160.708 208.799 159.971 206.516 159.308C205.244 158.935 204.075 158.586 203.042 158.268C201.373 157.751 200.054 157.312 199.205 156.978C197.035 156.123 193.62 155.286 190.825 153.628L190.824 153.626C188.931 152.505 187.324 151.007 186.577 148.871C184.724 143.578 174.827 134.208 165.876 128.09C160.996 124.752 156.01 119.294 154.206 117.087C152.787 115.35 147.849 107.883 145.961 107.285C144.849 106.935 142.167 110.002 141.833 111.756C141.116 115.515 143.734 120.264 148.969 127.481C153.958 134.355 154.571 138.336 154.355 142.06C154.213 144.48 153.716 146.904 150.778 149.078C150.432 149.332 149.395 150.221 147.894 151.104C144.754 152.955 139.585 154.786 134.524 150.73C134.465 150.681 134.405 150.636 134.344 150.589L134.342 150.587C134.342 150.587 134.342 150.587 134.341 150.586C132.15 148.895 129.368 147.837 126.853 146.674C124.22 145.456 121.878 144.12 120.82 141.818C119.532 139.02 117.258 136.523 114.907 133.709L114.906 133.708C113.202 131.674 111.457 129.471 110.018 126.866C106.506 120.514 102.453 120.916 101.051 123.566C100.291 125.005 103.825 135.05 104.52 136.463C105.446 138.35 113 150.943 114.627 152.956C118.628 157.916 135.858 172.745 139.14 175.281C144.701 179.581 159.966 180.571 172.595 182.683C173.44 182.825 174.283 182.978 175.124 183.142L175.127 183.142C179.744 184.045 184.287 185.286 188.716 186.86C190.12 187.355 191.51 187.886 192.89 188.45C193.511 188.704 194.132 188.965 194.747 189.233C203.611 179.537 209.823 170.287 214.213 161.478Z" fill="#FFA089"/>
<path d="M191.722 190.948L175.046 183.105L190.807 153.62L207.065 158.136L191.722 190.948Z" fill="#89B4FD"/>
<path d="M269.79 173.498L203.889 156.576L203.589 157.171L203.041 158.268L188.716 186.859L187.631 189.024L186.643 190.995L235.77 218.728C246.957 208.359 257.501 184.872 269.79 173.498Z" fill="#3335CF"/>
<path d="M195.089 158.988C195.608 159.476 196.424 159.452 196.912 158.934C197.401 158.416 197.376 157.6 196.858 157.111C196.34 156.623 195.524 156.647 195.036 157.165C194.547 157.683 194.571 158.499 195.089 158.988Z" fill="#100259"/>
<path d="M130.203 105.26C129.376 104.435 128.964 103.156 128.964 101.425V99.8904C128.964 94.9358 130.085 90.8263 132.327 87.5619C134.568 84.2975 138.206 81.0913 143.241 77.9448C146.072 76.2943 148.137 74.956 149.436 73.9332C150.734 72.9104 151.657 71.8494 152.208 70.7469C152.758 69.6461 153.034 68.2297 153.034 66.4996C153.034 63.5889 151.951 61.3473 149.789 59.7733C147.626 58.2009 144.499 57.4139 140.41 57.4139C133.959 57.4139 128.177 59.1059 123.065 62.4881C122.12 63.0393 121.491 63.3133 121.177 63.3133C120.468 63.3133 119.879 62.8816 119.407 62.0149L114.805 54.1097C114.489 53.5601 114.333 53.0886 114.333 52.6934C114.333 51.9861 114.765 51.3568 115.631 50.8055C122.945 45.8509 132.031 43.3735 142.887 43.3735C151.697 43.3735 158.815 45.3992 164.243 49.4506C169.671 53.502 172.386 59.1457 172.386 66.3818C172.386 71.1006 171.283 74.9943 169.082 78.0627C166.878 81.1312 163.338 84.0419 158.462 86.7947C154.606 88.9965 151.971 91.042 150.556 92.9299C149.14 94.8178 148.433 97.2171 148.433 100.128V101.425C148.433 103.156 148.039 104.435 147.252 105.26C146.465 106.087 145.089 106.499 143.123 106.499H134.273C132.385 106.499 131.028 106.087 130.203 105.26ZM129.966 123.903C128.747 122.92 128.137 121.602 128.137 119.95V117.472C128.137 115.742 128.747 114.384 129.966 113.401C131.184 112.418 132.936 111.927 135.217 111.927H142.062C144.419 111.927 146.209 112.418 147.428 113.401C148.647 114.384 149.258 115.742 149.258 117.472V119.95C149.258 121.68 148.647 123.018 147.428 123.961C146.209 124.906 144.419 125.378 142.062 125.378H135.217C132.936 125.378 131.184 124.886 129.966 123.903Z" fill="#5E81FF"/>
<path d="M185.521 146.709C182.264 141.286 173.707 133.444 165.878 128.089C160.998 124.753 156.01 119.295 154.205 117.087C152.788 115.351 147.85 107.883 145.961 107.285C144.849 106.936 142.167 110.003 141.834 111.757C141.117 115.516 143.733 120.266 148.968 127.48C153.958 134.355 154.571 138.336 154.355 142.06C154.35 142.146 154.344 142.229 154.339 142.315L185.521 146.709Z" fill="#FFA089"/>
</g>
<mask id="mask2_18001_670" style="mask-type:luminance" maskUnits="userSpaceOnUse" x="26" y="15" width="257" height="176">
<path d="M255.43 182.475C248.077 184.83 239.121 185.468 232.007 184.977C232.007 184.977 101.228 197.575 53.9543 184.659C18.9671 175.099 23.1908 141.068 33.898 119.285C44.7272 97.2547 16.3005 54.67 61.9962 29.9765C88.2796 15.7731 111.854 38.5022 157.291 21.7226C198.314 6.57345 251.231 20.1236 264.171 51.8958C273.073 73.7525 261.851 97.3133 273.073 108.733C291.273 127.255 282.904 173.676 255.43 182.475Z" fill="white"/>
</mask>
<g mask="url(#mask2_18001_670)">
<path d="M196.594 50.5133L179.776 56.2245C178.936 56.5097 178.024 56.0601 177.739 55.2202C177.454 54.3804 177.903 53.4683 178.743 53.1831L195.561 47.472C196.4 47.1868 197.313 47.6364 197.598 48.4762C197.883 49.3161 197.433 50.2281 196.594 50.5133Z" fill="white"/>
</g>
<mask id="mask3_18001_670" style="mask-type:luminance" maskUnits="userSpaceOnUse" x="26" y="15" width="257" height="176">
<path d="M255.43 182.475C248.077 184.83 239.121 185.468 232.007 184.977C232.007 184.977 101.228 197.575 53.9543 184.659C18.9671 175.099 23.1908 141.068 33.898 119.285C44.7272 97.2547 16.3005 54.67 61.9962 29.9765C88.2796 15.7731 111.854 38.5022 157.291 21.7226C198.314 6.57345 251.231 20.1236 264.171 51.8958C273.073 73.7525 261.851 97.3133 273.073 108.733C291.273 127.255 282.904 173.676 255.43 182.475Z" fill="white"/>
</mask>
<g mask="url(#mask3_18001_670)">
<path d="M179.174 37.3954L173.691 47.344C173.342 47.9783 172.544 48.2091 171.91 47.8596L171.394 47.5751C170.759 47.2256 170.528 46.428 170.878 45.7937L176.36 35.8452C176.71 35.2109 177.507 34.9801 178.142 35.3296L178.658 35.614C179.292 35.9636 179.523 36.7611 179.174 37.3954Z" fill="white"/>
</g>
<mask id="mask4_18001_670" style="mask-type:luminance" maskUnits="userSpaceOnUse" x="26" y="15" width="257" height="176">
<path d="M255.43 182.475C248.077 184.83 239.121 185.468 232.007 184.977C232.007 184.977 101.228 197.575 53.9543 184.659C18.9671 175.099 23.1908 141.068 33.898 119.285C44.7272 97.2547 16.3005 54.67 61.9962 29.9765C88.2796 15.7731 111.854 38.5022 157.291 21.7226C198.314 6.57344 251.231 20.1236 264.171 51.8958C273.073 73.7525 261.851 97.3133 273.073 108.733C291.273 127.255 282.904 173.676 255.43 182.475Z" fill="white"/>
</mask>
<g mask="url(#mask4_18001_670)">
<path d="M162.981 33.4929L162.445 41.1113C162.403 41.7054 161.888 42.1532 161.293 42.1114L160.351 42.045C159.757 42.0032 159.31 41.4877 159.351 40.8936L159.888 33.2752C159.93 32.6811 160.445 32.2333 161.039 32.2752L161.981 32.3415C162.575 32.3833 163.023 32.8988 162.981 33.4929Z" fill="white"/>
</g>
</g>
<defs>
<clipPath id="clip0_18001_670">
<rect width="309" height="206" fill="white"/>
</clipPath>
</defs>
</svg>
