<svg width="297" height="198" viewBox="0 0 297 198" fill="none" xmlns="http://www.w3.org/2000/svg">
<path d="M188.147 79.6653V97.1575C188.147 100.2 190.712 102.766 193.878 102.766H256.599C259.764 102.766 262.33 100.2 262.33 97.0349V82.2547L270.138 74.0504L193.895 73.812C190.724 73.8021 188.147 76.3709 188.147 79.6653Z" fill="#F5F5F5"/>
<path d="M253.084 84.4093L196.168 84.1467L196.175 82.397L253.09 82.66L253.084 84.4093Z" fill="#E0E0E0"/>
<path d="M253.084 90.1646L196.168 89.9016L196.175 88.1523L253.09 88.4153L253.084 90.1646Z" fill="#E0E0E0"/>
<path d="M230.568 93.9099L230.56 95.6592L253.08 95.7695L253.088 94.0202L230.568 93.9099Z" fill="#E0E0E0"/>
<path d="M81.2516 168.823C90.0223 162.696 92.0119 151.322 91.6649 141.098C91.6073 139.392 91.7946 137.593 90.983 136.095C90.1706 134.598 88.2769 133.575 86.749 134.294C85.4816 134.89 84.9295 136.364 84.2202 137.584C83.2769 139.206 81.8716 140.549 80.2178 141.407C79.131 141.971 77.7867 142.315 76.7137 141.723C75.2417 140.911 75.0683 138.878 75.0786 137.18C75.0985 134.017 75.1179 130.853 75.1381 127.69C75.1488 125.992 75.1536 124.259 74.626 122.649C74.0981 121.038 72.9315 119.541 71.317 119.089C69.7018 118.637 67.7054 119.568 67.3647 121.229C67.2227 121.92 67.3635 122.638 67.3163 123.342C67.2691 124.047 66.941 124.827 66.2718 125.023C65.5943 125.222 64.9152 124.741 64.4079 124.244C62.6558 122.53 61.4674 120.322 60.3564 118.127C59.2453 115.931 58.1667 113.684 56.5773 111.814C54.9879 109.945 52.7887 108.464 50.3584 108.326C47.9272 108.188 45.3374 109.689 44.7233 112.075C44.1073 114.468 45.5032 116.896 47.0224 118.833C49.2763 121.707 51.9423 124.248 54.9109 126.352C55.446 126.732 56.0259 127.142 56.2302 127.771C56.5991 128.903 55.5269 130.027 54.4095 130.399C53.1446 130.82 51.7717 130.689 50.448 130.844C49.1247 131 47.6908 131.584 47.1902 132.835C46.4948 134.57 47.9458 136.388 49.3734 137.579C52.2322 139.964 55.4964 141.848 58.9787 143.124C60.2274 143.581 61.5412 143.982 62.5483 144.859C63.5551 145.737 64.1628 147.262 63.5547 148.457C62.9458 149.654 61.3845 150.036 60.0767 149.794C58.7693 149.551 57.5983 148.841 56.352 148.371C54.0196 147.491 51.0073 147.652 49.5131 149.668C48.5313 150.993 48.4448 152.838 48.9415 154.417C49.4377 155.997 50.4452 157.357 51.5146 158.612C55.2532 162.998 60.039 166.529 65.4503 168.405C70.8605 170.282 75.874 170.79 81.2516 168.823Z" fill="#F5F5F5"/>
<path d="M81.3856 176.404C81.0151 172.354 80.127 167.571 78.6125 162.415C77.1079 157.255 74.9893 151.737 72.5752 146.04C71.9663 144.619 71.365 143.214 70.7724 141.829C70.1774 140.449 69.5875 139.079 68.9279 137.776C67.6193 135.162 66.1623 132.749 64.7073 130.502C63.2532 128.253 61.791 126.173 60.4098 124.237C59.0239 122.303 57.6982 120.526 56.4206 118.957C53.8748 115.809 51.5249 113.517 49.8478 112.01C49.0108 111.253 48.3421 110.688 47.8835 110.31C47.663 110.131 47.49 109.99 47.3595 109.884C47.2405 109.79 47.1778 109.744 47.1743 109.748C47.1703 109.752 47.2262 109.807 47.3389 109.909C47.4642 110.021 47.6312 110.169 47.8427 110.359C48.2873 110.751 48.9426 111.331 49.7665 112.101C51.4158 113.634 53.7328 115.942 56.2496 119.098C57.5126 120.672 58.8248 122.453 60.1992 124.39C61.5701 126.331 63.0223 128.414 64.4666 130.661C65.9108 132.907 67.3567 135.315 68.6542 137.915C69.3083 139.213 69.8918 140.571 70.4872 141.955C71.0794 143.339 71.6799 144.743 72.288 146.164C74.6998 151.856 76.8211 157.358 78.3368 162.498C79.8616 167.633 80.7684 172.392 81.1654 176.425" fill="#E0E0E0"/>
<path d="M68.838 137.764C68.8591 137.767 68.917 137.509 69.0038 137.04C69.0931 136.571 69.1994 135.888 69.3188 135.043C69.5588 133.353 69.8107 131.007 70.0784 128.421C70.3462 125.833 70.6306 123.498 70.8955 121.817C71.026 120.976 71.1379 120.295 71.2216 119.827C71.3025 119.357 71.3374 119.095 71.3164 119.09C71.2954 119.085 71.2204 119.338 71.103 119.801C70.9828 120.263 70.8368 120.939 70.679 121.778C70.3569 123.456 70.0364 125.797 69.7686 128.387C69.5108 130.94 69.2779 133.25 69.0998 135.014C69.0145 135.811 68.942 136.483 68.8837 137.022C68.8345 137.496 68.8166 137.761 68.838 137.764Z" fill="#E0E0E0"/>
<path d="M47.0159 133.686C47.0155 133.707 47.3257 133.743 47.8862 133.79C48.4462 133.84 49.2566 133.907 50.255 134.024C52.2539 134.239 55.0043 134.634 58.0198 135.202C61.0353 135.776 63.7421 136.411 65.6866 136.928C66.6612 137.179 67.4442 137.403 67.9864 137.555C68.5279 137.709 68.8309 137.785 68.8381 137.764C68.8448 137.743 68.5541 137.628 68.0225 137.438C67.4902 137.25 66.7147 136.992 65.7449 136.712C63.8099 136.139 61.1015 135.467 58.0773 134.891C55.0527 134.321 52.2868 133.96 50.2765 133.801C49.2717 133.713 48.4562 133.679 47.8925 133.667C47.3284 133.658 47.0171 133.663 47.0159 133.686Z" fill="#E0E0E0"/>
<path d="M78.344 162.013C78.354 162.018 78.4051 161.926 78.4936 161.747C78.5943 161.534 78.7177 161.273 78.8669 160.958C79.1878 160.271 79.6265 159.264 80.1521 158.014C81.2048 155.514 82.5507 152.015 83.9831 148.134C85.417 144.252 86.728 140.745 87.7272 138.227C88.2167 137.003 88.6197 135.996 88.9192 135.247C89.0473 134.922 89.1528 134.655 89.2393 134.435C89.3091 134.248 89.3412 134.147 89.3313 134.142C89.3214 134.138 89.2702 134.23 89.1814 134.409C89.0806 134.622 88.9577 134.882 88.8081 135.198C88.4872 135.885 88.0485 136.891 87.5229 138.141C86.4702 140.641 85.1247 144.14 83.6911 148.023C82.258 151.905 80.9466 155.411 79.9478 157.93C79.4575 159.153 79.0553 160.16 78.7558 160.908C78.6277 161.233 78.5221 161.502 78.4361 161.721C78.3663 161.908 78.3341 162.009 78.344 162.013Z" fill="#E0E0E0"/>
<path d="M49.3455 152.667C49.3427 152.678 49.4419 152.718 49.6335 152.786C49.8604 152.862 50.1385 152.955 50.4756 153.068C51.2535 153.321 52.3035 153.661 53.5811 154.075C56.2031 154.925 59.8108 156.141 63.7953 157.49C67.781 158.84 71.4038 160.024 74.044 160.82C75.3641 161.219 76.4351 161.53 77.1796 161.73C77.5239 161.821 77.8075 161.895 78.0384 161.956C78.2355 162.004 78.3411 162.024 78.3438 162.013C78.3466 162.003 78.2474 161.962 78.0562 161.894C77.8301 161.819 77.5517 161.726 77.2141 161.613C76.4363 161.361 75.3867 161.021 74.1094 160.606C71.4874 159.756 67.8794 158.54 63.8933 157.191C59.9087 155.841 56.2864 154.658 53.6462 153.862C52.3261 153.463 51.2551 153.151 50.5097 152.951C50.1654 152.861 49.8822 152.786 49.651 152.726C49.4538 152.677 49.3491 152.657 49.3455 152.667Z" fill="#E0E0E0"/>
<path d="M101.489 61.5682V75.1215C101.489 77.5737 99.5016 79.5618 97.049 79.5618H48.4506C45.998 79.5618 44.0103 77.5737 44.0103 75.1215V63.6698L37.96 57.3128L97.0351 57.128C99.4929 57.1204 101.489 59.1105 101.489 61.5682Z" fill="#E0E0E0"/>
<path d="M51.174 65.3397L95.2743 65.1362L95.2695 63.7808L51.1697 63.9843L51.174 65.3397Z" fill="#FAFAFA"/>
<path d="M51.174 69.7981L95.2743 69.5942L95.2695 68.2388L51.1697 68.4427L51.174 69.7981Z" fill="#FAFAFA"/>
<path d="M68.6164 72.706L51.167 72.7915L51.1736 74.1469L68.623 74.0614L68.6164 72.706Z" fill="#FAFAFA"/>
<path d="M265.192 184.379C265.192 184.437 214.017 184.483 150.903 184.483C87.7669 184.483 36.6021 184.437 36.6021 184.379C36.6021 184.322 87.7669 184.276 150.903 184.276C214.016 184.276 265.192 184.323 265.192 184.379Z" fill="#263238"/>
<path d="M224.6 86.5791V179.798C224.6 182.328 222.549 184.379 220.019 184.379H82.2554C79.7255 184.379 77.6743 182.328 77.6743 179.798V86.5787C77.6743 84.0487 79.7255 81.9976 82.2554 81.9976H220.019C222.55 81.9976 224.6 84.0487 224.6 86.5791Z" fill="#263238"/>
<path d="M87.7266 85.227V181.151H210.427V85.227L87.7266 85.227Z" fill="white"/>
<path d="M221.048 134.084C221.544 131.972 220.235 129.858 218.123 129.361C216.011 128.865 213.896 130.175 213.4 132.287C212.903 134.399 214.213 136.513 216.325 137.01C218.437 137.506 220.552 136.196 221.048 134.084Z" fill="#455A64"/>
<path d="M83.5293 118.253V148.125C83.5293 148.391 83.3135 148.607 83.0473 148.607H82.3884C82.1223 148.607 81.9065 148.391 81.9065 148.125V118.253C81.9065 117.987 82.1223 117.771 82.3884 117.771H83.0473C83.3131 117.771 83.5293 117.987 83.5293 118.253Z" fill="#455A64"/>
<path d="M124.162 135.867C124.275 141.341 119.929 145.869 114.456 145.982C108.982 146.095 104.453 141.749 104.341 136.276C104.228 130.802 108.574 126.274 114.047 126.161C119.52 126.048 124.049 130.394 124.162 135.867Z" fill="#5E81FF"/>
<path opacity="0.3" d="M124.162 135.867C124.275 141.341 119.929 145.869 114.456 145.982C108.982 146.095 104.453 141.749 104.341 136.276C104.228 130.802 108.574 126.274 114.047 126.161C119.52 126.048 124.049 130.394 124.162 135.867Z" fill="white"/>
<path d="M110.831 133.574C111.207 133.543 111.548 133.957 111.593 134.5C111.637 135.042 111.369 135.506 110.993 135.538C110.617 135.569 110.276 135.154 110.232 134.612C110.187 134.069 110.456 133.605 110.831 133.574Z" fill="#263238"/>
<path d="M117.133 133.444C116.757 133.429 116.434 133.857 116.411 134.401C116.389 134.944 116.676 135.397 117.053 135.413C117.429 135.428 117.753 135 117.775 134.457C117.797 133.913 117.51 133.46 117.133 133.444Z" fill="#263238"/>
<path d="M118.214 138.035C118.214 138.151 116.367 138.246 114.088 138.246C111.808 138.246 109.961 138.151 109.961 138.035C109.961 137.918 111.808 137.823 114.088 137.823C116.367 137.823 118.214 137.918 118.214 138.035Z" fill="#263238"/>
<path d="M111.589 132.436C111.565 132.553 111.095 132.549 110.543 132.639C109.99 132.722 109.544 132.869 109.485 132.764C109.424 132.669 109.839 132.319 110.478 132.221C111.116 132.12 111.618 132.326 111.589 132.436Z" fill="#263238"/>
<path d="M118.922 132.915C118.847 133.01 118.419 132.786 117.869 132.621C117.321 132.449 116.841 132.394 116.832 132.274C116.817 132.162 117.357 132.02 117.993 132.217C118.63 132.411 118.998 132.831 118.922 132.915Z" fill="#263238"/>
<path d="M196.286 135.037C196.403 140.711 191.898 145.405 186.225 145.522C180.551 145.639 175.857 141.134 175.74 135.461C175.623 129.787 180.128 125.093 185.801 124.976C191.475 124.859 196.169 129.364 196.286 135.037Z" fill="#5E81FF"/>
<path opacity="0.3" d="M196.286 135.037C196.403 140.711 191.898 145.405 186.225 145.522C180.551 145.639 175.857 141.134 175.74 135.461C175.623 129.787 180.128 125.093 185.801 124.976C191.475 124.859 196.169 129.364 196.286 135.037Z" fill="black"/>
<path d="M182.468 132.66C182.858 132.628 183.211 133.057 183.257 133.619C183.304 134.182 183.026 134.663 182.636 134.695C182.247 134.727 181.893 134.297 181.847 133.736C181.801 133.174 182.079 132.692 182.468 132.66Z" fill="#263238"/>
<path d="M189 132.526C188.61 132.51 188.275 132.954 188.251 133.518C188.228 134.081 188.526 134.551 188.917 134.567C189.307 134.583 189.642 134.139 189.666 133.575C189.689 133.012 189.391 132.542 189 132.526Z" fill="#263238"/>
<path d="M190.121 137.284C190.079 137.34 189.652 137.037 188.918 136.66C188.185 136.292 187.102 135.884 185.859 135.905C184.616 135.928 183.536 136.352 182.792 136.701C182.047 137.063 181.604 137.34 181.565 137.284C181.537 137.245 181.919 136.88 182.651 136.437C183.38 136.009 184.51 135.508 185.851 135.482C187.195 135.46 188.344 135.95 189.063 136.399C189.789 136.86 190.151 137.248 190.121 137.284Z" fill="#263238"/>
<path d="M183.254 131.48C183.289 131.524 183.221 131.652 183.051 131.802C182.882 131.949 182.6 132.115 182.247 132.178C181.893 132.242 181.563 132.176 181.356 132.079C181.146 131.982 181.049 131.87 181.073 131.821C181.127 131.709 181.61 131.87 182.173 131.762C182.738 131.661 183.176 131.382 183.254 131.48Z" fill="#263238"/>
<path d="M190.855 131.978C190.872 132.03 190.759 132.13 190.533 132.202C190.309 132.271 189.958 132.293 189.609 132.168C189.26 132.048 189.003 131.836 188.853 131.664C188.702 131.489 188.648 131.353 188.688 131.312C188.777 131.22 189.191 131.574 189.747 131.769C190.3 131.971 190.815 131.859 190.855 131.978Z" fill="#263238"/>
<path d="M166.323 163.769L168.703 162.589L171.025 163.88L170.638 161.252L172.584 159.443L169.965 158.999L168.846 156.589L167.614 158.943L164.977 159.262L166.834 161.161L166.323 163.769Z" fill="#E0E0E0"/>
<path d="M156.613 163.769L158.993 162.589L161.314 163.88L160.927 161.252L162.874 159.443L160.254 158.999L159.136 156.589L157.903 158.943L155.266 159.262L157.124 161.161L156.613 163.769Z" fill="#5E81FF"/>
<path d="M146.902 163.769L149.282 162.589L151.604 163.88L151.217 161.252L153.163 159.443L150.544 158.999L149.426 156.589L148.193 158.943L145.556 159.262L147.413 161.161L146.902 163.769Z" fill="#5E81FF"/>
<path d="M137.192 163.769L139.572 162.589L141.893 163.88L141.507 161.252L143.453 159.443L140.834 158.999L139.715 156.589L138.483 158.943L135.845 159.262L137.703 161.161L137.192 163.769Z" fill="#5E81FF"/>
<path d="M127.481 163.769L129.861 162.589L132.183 163.88L131.796 161.252L133.742 159.443L131.123 158.999L130.004 156.589L128.772 158.943L126.134 159.262L127.992 161.161L127.481 163.769Z" fill="#5E81FF"/>
<path d="M172.693 105.32C172.693 105.379 162.04 105.426 148.902 105.426C135.759 105.426 125.108 105.379 125.108 105.32C125.108 105.262 135.759 105.214 148.902 105.214C162.04 105.214 172.693 105.262 172.693 105.32Z" fill="#263238"/>
<path d="M160.996 102.463C160.996 102.521 155.734 102.569 149.245 102.569C142.753 102.569 137.492 102.522 137.492 102.463C137.492 102.405 142.753 102.357 149.245 102.357C155.734 102.357 160.996 102.405 160.996 102.463Z" fill="#263238"/>
<path d="M164.464 132.604C164.618 140.078 158.685 146.261 151.211 146.415C143.737 146.569 137.553 140.635 137.399 133.162C137.245 125.688 143.179 119.504 150.653 119.35C158.127 119.196 164.31 125.13 164.464 132.604Z" fill="#5E81FF"/>
<path d="M146.262 129.473C146.775 129.43 147.24 129.997 147.301 130.737C147.362 131.478 146.995 132.112 146.483 132.154C145.969 132.196 145.504 131.63 145.443 130.89C145.383 130.15 145.749 129.515 146.262 129.473Z" fill="#263238"/>
<path d="M154.868 129.295C154.353 129.274 153.912 129.858 153.881 130.6C153.851 131.343 154.243 131.961 154.757 131.983C155.271 132.004 155.713 131.419 155.744 130.677C155.774 129.935 155.382 129.316 154.868 129.295Z" fill="#263238"/>
<path d="M156.343 133.738C156.364 133.759 156.254 133.898 156.036 134.135C155.826 134.381 155.476 134.69 155.022 135.049C154.548 135.379 153.968 135.775 153.232 136.029C152.506 136.298 151.648 136.462 150.75 136.418C149.85 136.385 149.02 136.141 148.31 135.856C147.591 135.578 147 135.218 146.512 134.914C145.554 134.272 145.045 133.774 145.074 133.738C145.116 133.681 145.69 134.095 146.667 134.658C147.164 134.923 147.754 135.245 148.45 135.492C149.139 135.745 149.927 135.964 150.77 135.995C151.612 136.035 152.41 135.894 153.101 135.661C153.801 135.442 154.372 135.09 154.85 134.803C155.312 134.486 155.683 134.218 155.924 134.013C156.174 133.817 156.323 133.717 156.343 133.738Z" fill="#263238"/>
<path d="M146.874 126.427C146.85 126.547 146.203 126.504 145.434 126.629C144.663 126.745 144.06 126.983 144.001 126.876C143.94 126.783 144.512 126.343 145.369 126.211C146.224 126.075 146.903 126.32 146.874 126.427Z" fill="#263238"/>
<path d="M157.771 127.06C157.696 127.156 157.123 126.815 156.355 126.584C155.591 126.344 154.924 126.306 154.916 126.184C154.9 126.073 155.627 125.915 156.479 126.18C157.333 126.439 157.846 126.978 157.771 127.06Z" fill="#263238"/>
<path d="M145.294 132.764C145.347 132.755 145.433 132.895 145.447 133.15C145.462 133.404 145.38 133.765 145.153 134.086C144.925 134.406 144.611 134.603 144.367 134.672C144.12 134.743 143.96 134.709 143.952 134.655C143.932 134.538 144.452 134.364 144.808 133.841C145.184 133.332 145.177 132.784 145.294 132.764Z" fill="#263238"/>
<path d="M157.488 134.009C157.498 134.062 157.387 134.144 157.175 134.162C156.967 134.182 156.665 134.114 156.404 133.921C156.144 133.728 155.992 133.459 155.951 133.253C155.907 133.045 155.953 132.915 156.007 132.91C156.125 132.9 156.259 133.301 156.657 133.582C157.04 133.88 157.462 133.893 157.488 134.009Z" fill="#263238"/>
<path d="M167.482 132.764C167.482 132.764 167.47 132.672 167.458 132.492C167.446 132.305 167.429 132.04 167.407 131.694C167.397 131.518 167.385 131.322 167.372 131.106C167.349 130.891 167.303 130.658 167.266 130.404C167.225 130.15 167.182 129.877 167.136 129.586C167.101 129.291 166.992 128.993 166.917 128.669C166.621 127.37 166.013 125.835 165.055 124.208C164.089 122.588 162.695 120.895 160.796 119.458C160.558 119.281 160.317 119.101 160.072 118.919C159.818 118.753 159.55 118.6 159.285 118.437C159.015 118.283 158.759 118.096 158.469 117.965C158.182 117.827 157.893 117.688 157.6 117.548C157.454 117.479 157.306 117.409 157.158 117.339C157.004 117.283 156.85 117.227 156.694 117.17C156.383 117.056 156.069 116.942 155.752 116.827C155.433 116.721 155.098 116.653 154.767 116.563C154.432 116.487 154.103 116.369 153.754 116.334C153.063 116.236 152.364 116.093 151.64 116.089C151.279 116.077 150.916 116.041 150.55 116.047C150.184 116.066 149.815 116.085 149.443 116.104C149.258 116.117 149.07 116.116 148.885 116.14L148.327 116.226C147.955 116.288 147.576 116.331 147.202 116.409C146.465 116.609 145.7 116.759 144.973 117.063C144.223 117.303 143.518 117.673 142.793 118.021C142.44 118.212 142.102 118.435 141.752 118.642C141.581 118.752 141.398 118.845 141.236 118.969L140.743 119.337C140.064 119.804 139.47 120.387 138.848 120.948C138.566 121.259 138.283 121.571 137.998 121.884L137.785 122.119L137.593 122.374L137.21 122.886L136.826 123.4L136.49 123.95L136.154 124.503L135.985 124.781L135.842 125.073C135.654 125.464 135.465 125.857 135.275 126.252C135.124 126.662 134.973 127.075 134.822 127.489C134.277 129.166 133.983 130.948 133.959 132.761C133.983 134.574 134.276 136.357 134.82 138.035C134.972 138.449 135.123 138.862 135.274 139.273C135.464 139.667 135.653 140.06 135.841 140.451L135.984 140.744L136.153 141.021L136.489 141.575L136.825 142.125L137.21 142.64L137.592 143.152L137.784 143.406L137.998 143.641C138.282 143.955 138.566 144.267 138.848 144.577C139.47 145.139 140.064 145.722 140.744 146.189L141.236 146.557C141.399 146.681 141.582 146.774 141.753 146.884C142.102 147.091 142.44 147.314 142.793 147.506C143.519 147.853 144.224 148.224 144.974 148.464C145.701 148.768 146.465 148.917 147.203 149.119C147.577 149.196 147.956 149.24 148.328 149.301L148.886 149.387C149.071 149.412 149.259 149.411 149.444 149.423C149.816 149.442 150.185 149.461 150.551 149.48C150.917 149.486 151.28 149.451 151.641 149.438C152.365 149.434 153.064 149.292 153.756 149.194C154.105 149.158 154.434 149.04 154.768 148.964C155.1 148.874 155.434 148.806 155.754 148.7C156.071 148.585 156.385 148.471 156.696 148.357C156.851 148.301 157.006 148.244 157.16 148.188C157.308 148.118 157.455 148.048 157.602 147.979C157.894 147.839 158.184 147.7 158.47 147.562C158.76 147.431 159.016 147.244 159.287 147.09C159.552 146.927 159.82 146.775 160.074 146.608C160.318 146.426 160.559 146.247 160.798 146.069C162.696 144.632 164.09 142.939 165.056 141.319C166.014 139.692 166.622 138.157 166.917 136.859C166.993 136.535 167.102 136.236 167.137 135.942C167.183 135.651 167.226 135.378 167.267 135.124C167.304 134.87 167.35 134.637 167.373 134.422C167.386 134.206 167.397 134.01 167.408 133.834C167.43 133.488 167.447 133.223 167.459 133.036C167.47 132.856 167.482 132.764 167.482 132.764C167.482 132.764 167.485 132.857 167.48 133.037C167.472 133.225 167.462 133.49 167.45 133.837C167.442 134.014 167.434 134.211 167.425 134.428C167.406 134.644 167.363 134.878 167.329 135.133C167.292 135.389 167.251 135.663 167.208 135.956C167.176 136.252 167.07 136.553 166.997 136.879C166.712 138.188 166.113 139.736 165.157 141.38C164.194 143.018 162.798 144.731 160.888 146.189C160.648 146.369 160.405 146.551 160.16 146.735C159.904 146.905 159.634 147.06 159.368 147.225C159.096 147.382 158.837 147.571 158.545 147.704C158.257 147.844 157.965 147.985 157.67 148.128C157.522 148.199 157.373 148.27 157.224 148.341C157.069 148.398 156.913 148.456 156.756 148.513C156.442 148.629 156.126 148.745 155.806 148.863C155.483 148.971 155.146 149.04 154.811 149.132C154.474 149.21 154.141 149.33 153.789 149.367C153.09 149.468 152.384 149.614 151.652 149.62C151.288 149.633 150.92 149.669 150.55 149.664C150.18 149.646 149.807 149.628 149.431 149.609C149.244 149.597 149.054 149.598 148.866 149.574L148.302 149.488C147.926 149.427 147.543 149.383 147.164 149.305C146.417 149.104 145.644 148.953 144.908 148.648C144.148 148.406 143.434 148.032 142.7 147.681C142.343 147.488 142 147.263 141.646 147.054C141.472 146.943 141.288 146.849 141.123 146.724L140.624 146.352C139.936 145.88 139.333 145.291 138.703 144.722C138.418 144.408 138.131 144.093 137.842 143.776L137.626 143.538L137.431 143.281L137.043 142.763L136.653 142.242L136.312 141.686L135.972 141.125L135.801 140.844L135.656 140.548C135.465 140.152 135.273 139.754 135.081 139.355C134.928 138.939 134.775 138.52 134.621 138.101C134.068 136.402 133.772 134.597 133.748 132.761C133.772 130.926 134.07 129.121 134.622 127.423C134.776 127.004 134.929 126.586 135.082 126.17C135.274 125.77 135.466 125.373 135.657 124.977L135.802 124.681L135.973 124.4L136.313 123.84L136.654 123.284L137.044 122.763L137.432 122.245L137.626 121.988L137.843 121.75C138.131 121.433 138.418 121.118 138.704 120.804C139.334 120.236 139.936 119.647 140.624 119.175L141.123 118.803C141.288 118.679 141.473 118.584 141.646 118.474C142 118.264 142.343 118.039 142.701 117.846C143.434 117.495 144.149 117.122 144.908 116.88C145.644 116.574 146.417 116.423 147.164 116.222C147.543 116.144 147.926 116.101 148.302 116.039L148.866 115.954C149.054 115.93 149.244 115.931 149.431 115.918C149.807 115.9 150.18 115.881 150.55 115.863C150.92 115.858 151.288 115.895 151.652 115.908C152.384 115.914 153.09 116.06 153.789 116.161C154.141 116.198 154.473 116.317 154.811 116.395C155.145 116.487 155.483 116.557 155.806 116.665C156.125 116.782 156.442 116.899 156.756 117.014C156.912 117.072 157.069 117.129 157.224 117.187C157.373 117.258 157.522 117.329 157.669 117.4C157.964 117.542 158.256 117.684 158.545 117.823C158.837 117.957 159.095 118.146 159.367 118.302C159.634 118.468 159.904 118.623 160.159 118.792C160.405 118.977 160.648 119.159 160.888 119.339C162.798 120.796 164.194 122.51 165.157 124.147C166.113 125.791 166.712 127.34 166.998 128.648C167.071 128.975 167.177 129.275 167.209 129.571C167.251 129.865 167.292 130.139 167.329 130.395C167.364 130.65 167.407 130.884 167.426 131.101C167.435 131.317 167.443 131.514 167.451 131.691C167.464 132.038 167.474 132.304 167.48 132.491C167.485 132.672 167.482 132.764 167.482 132.764Z" fill="#5E81FF"/>
<path d="M210.428 85.2261H87.7268V91.3478H210.428V85.2261Z" fill="#E0E0E0"/>
<path d="M91.6857 88.1186C91.6857 88.5763 91.3144 88.9476 90.8566 88.9476C90.3989 88.9476 90.0276 88.5763 90.0276 88.1186C90.0276 87.6608 90.3989 87.2896 90.8566 87.2896C91.3144 87.2896 91.6857 87.6608 91.6857 88.1186Z" fill="white"/>
<path d="M94.4398 88.1186C94.4398 88.5763 94.0685 88.9476 93.6108 88.9476C93.153 88.9476 92.7817 88.5763 92.7817 88.1186C92.7817 87.6608 93.153 87.2896 93.6108 87.2896C94.0689 87.2896 94.4398 87.6608 94.4398 88.1186Z" fill="white"/>
<path d="M97.1937 88.1186C97.1937 88.5763 96.8224 88.9476 96.3647 88.9476C95.9069 88.9476 95.5356 88.5763 95.5356 88.1186C95.5356 87.6608 95.9069 87.2896 96.3647 87.2896C96.8228 87.2896 97.1937 87.6608 97.1937 88.1186Z" fill="white"/>
<path d="M196.909 110.147C196.909 110.205 175.618 110.253 149.362 110.253C123.096 110.253 101.81 110.206 101.81 110.147C101.81 110.089 123.096 110.041 149.362 110.041C175.618 110.041 196.909 110.089 196.909 110.147Z" fill="#E0E0E0"/>
<path d="M196.909 112.504C196.909 112.563 175.618 112.61 149.362 112.61C123.096 112.61 101.81 112.563 101.81 112.504C101.81 112.446 123.096 112.398 149.362 112.398C175.618 112.398 196.909 112.446 196.909 112.504Z" fill="#E0E0E0"/>
<path d="M134.498 82.6446C134.498 82.6446 133.659 80.7457 133.503 80.3276C133.077 79.1884 130.332 71.5609 130.99 70.4062C134.034 65.0655 136.392 61.2686 142.396 61.2686L152.997 61.1976C152.997 61.1976 163.044 59.152 170.123 81.9972L134.498 82.6446Z" fill="#455A64"/>
<path d="M112.132 84.5585L126.014 81.5664L142.334 72.9818L142.396 61.269C139.947 60.5935 135.262 62.292 126.826 66.5899L114.294 73.0595C110.002 75.2749 108.938 80.9357 112.132 84.5585Z" fill="#455A64"/>
<path d="M143.375 107.231C143.175 106.572 143.311 106.149 144.271 106.471C146.389 107.182 148.281 106.95 148.744 106.539C149.206 106.128 148.781 105.341 148.093 105.409C147.537 105.463 146.578 105.272 145.862 105.1C145.272 104.958 144.708 104.723 144.199 104.397C143.757 104.115 143.375 103.852 143.036 103.609C143.036 103.609 141.084 102.198 140.472 101.063L133.773 103.937L134.852 107.292C134.852 107.292 135.203 109.268 137.117 109.892C139.032 110.516 142.078 110.281 142.078 110.281C142.636 109.915 144.792 113.034 145.443 114.134C146.087 115.222 146.874 115.371 147.126 114.698C147.299 114.24 145.384 110.823 144.714 109.75C144.348 109.163 143.617 108.026 143.375 107.231Z" fill="#B77153"/>
<path d="M138.837 110.29C138.831 110.314 138.671 110.307 138.443 110.195C138.216 110.085 137.934 109.851 137.743 109.51C137.553 109.169 137.5 108.806 137.526 108.555C137.55 108.302 137.628 108.162 137.651 108.17C137.711 108.178 137.568 108.786 137.928 109.407C138.268 110.039 138.861 110.235 138.837 110.29Z" fill="#995037"/>
<path d="M140.956 110.371C140.949 110.394 140.797 110.38 140.582 110.265C140.369 110.152 140.107 109.922 139.928 109.593C139.751 109.264 139.701 108.919 139.723 108.678C139.744 108.436 139.815 108.301 139.839 108.308C139.899 108.316 139.78 108.896 140.114 109.493C140.431 110.099 140.982 110.315 140.956 110.371Z" fill="#995037"/>
<path d="M111.738 84.1042C111.738 84.1042 133.005 108.546 132.98 108.143C132.955 107.74 142.513 100.593 142.513 100.593L121.661 75.7563L111.738 84.1042Z" fill="#455A64"/>
<path d="M124.637 79.3006C124.643 79.2958 124.694 79.3458 124.786 79.4454C124.893 79.5644 125.024 79.7104 125.183 79.8873C125.541 80.301 126.024 80.8587 126.612 81.5374C127.812 82.9364 129.458 84.8789 131.266 87.0324C133.075 89.1867 134.703 91.1447 135.874 92.5687C136.44 93.2652 136.906 93.8376 137.252 94.2625C137.399 94.4497 137.52 94.604 137.618 94.7301C137.7 94.8384 137.741 94.8979 137.735 94.9027C137.73 94.9075 137.679 94.8575 137.586 94.7583C137.479 94.6393 137.349 94.4937 137.189 94.3168C136.831 93.9031 136.348 93.3454 135.761 92.6671C134.561 91.268 132.915 89.3252 131.105 87.1705C129.297 85.0166 127.669 83.0586 126.498 81.6346C125.932 80.938 125.466 80.3657 125.12 79.9408C124.973 79.7536 124.852 79.5993 124.754 79.4735C124.672 79.3645 124.631 79.3054 124.637 79.3006Z" fill="#263238"/>
<path d="M162.26 82.1173C162.215 82.105 162.494 81.5342 162.514 80.5513C162.524 80.0642 162.454 79.4779 162.239 78.8718C162.026 78.2637 161.646 77.6592 161.124 77.1225C160.608 76.5798 160.053 76.1122 159.607 75.6203C159.155 75.1312 158.831 74.6108 158.654 74.1348C158.474 73.6588 158.449 73.2363 158.482 72.9563C158.516 72.6747 158.584 72.5311 158.593 72.5342C158.639 72.5311 158.405 73.1665 158.794 74.0792C158.98 74.5283 159.304 75.0193 159.75 75.487C160.193 75.9606 160.75 76.4216 161.278 76.9769C161.813 77.5251 162.214 78.1713 162.424 78.8075C162.637 79.4434 162.693 80.0538 162.664 80.556C162.636 81.0602 162.533 81.458 162.441 81.7218C162.349 81.9872 162.269 82.1217 162.26 82.1173Z" fill="#263238"/>
<path d="M133.575 63.3088C133.573 63.3021 133.679 63.2517 133.884 63.1621C134.09 63.0736 134.398 62.9546 134.805 62.8261C135.213 62.7039 135.722 62.5762 136.328 62.5159C136.931 62.4627 137.642 62.4742 138.38 62.7071C139.12 62.9284 139.864 63.389 140.479 64.0573C141.097 64.7285 141.521 65.6393 141.74 66.6281C141.953 67.617 142.066 68.6868 141.941 69.7904C141.813 70.8856 141.452 72.0137 140.765 72.9776C140.077 73.9415 139.148 74.6523 138.222 75.2334C137.291 75.8201 136.353 76.2997 135.465 76.7677C133.691 77.6991 132.092 78.5385 130.742 79.2469C129.408 79.9387 128.322 80.5016 127.55 80.9018C127.185 81.0862 126.894 81.233 126.677 81.3421C126.477 81.4405 126.37 81.4893 126.367 81.4829C126.364 81.4766 126.464 81.4151 126.658 81.304C126.87 81.1858 127.155 81.0275 127.513 80.8284C128.277 80.4139 129.352 79.8308 130.673 79.1144C132.016 78.3945 133.607 77.542 135.372 76.5964C136.256 76.1243 137.194 75.6392 138.111 75.0577C139.026 74.481 139.93 73.784 140.594 72.8542C141.256 71.9252 141.608 70.8324 141.736 69.7658C141.86 68.696 141.754 67.64 141.55 66.6702C141.34 65.7027 140.938 64.8249 140.348 64.174C139.761 63.525 139.046 63.0708 138.335 62.8491C137.624 62.6143 136.931 62.5921 136.338 62.6333C135.742 62.6813 135.235 62.7956 134.828 62.9046C134.421 63.0201 134.109 63.126 133.899 63.2013C133.69 63.2787 133.578 63.3156 133.575 63.3088Z" fill="#263238"/>
<path d="M126.976 81.5408C126.907 81.5606 126.731 80.1394 125.789 78.7066C124.867 77.2604 123.643 76.519 123.689 76.4646C123.7 76.4444 124.02 76.5983 124.471 76.9478C124.922 77.2953 125.49 77.8585 125.967 78.592C126.441 79.3266 126.723 80.0755 126.855 80.6289C126.989 81.1838 126.999 81.538 126.976 81.5408Z" fill="#263238"/>
<path d="M158.235 78.8865C158.235 78.8865 158.085 78.9488 157.783 79.0079C157.483 79.0678 157.026 79.1229 156.442 79.0654C155.861 79.0095 155.148 78.8278 154.426 78.403C153.708 77.9837 152.997 77.2792 152.565 76.3122C152.136 75.3562 151.955 74.1404 152.308 72.9369C152.49 72.34 152.849 71.7501 153.43 71.3816C153.716 71.1979 154.087 71.1012 154.444 71.1745C154.803 71.2396 155.113 71.4784 155.328 71.7616C156.134 72.9429 156.268 74.547 155.802 75.9929C155.559 76.7144 155.161 77.4042 154.599 77.9623C154.04 78.5216 153.315 78.9254 152.532 79.1309C150.97 79.5458 149.231 79.1717 148.114 78.1023C147 77.0329 146.562 75.4538 146.788 74.0738C146.893 73.3784 147.183 72.733 147.597 72.2071C147.811 71.9496 148.073 71.7235 148.389 71.601C148.701 71.4716 149.064 71.4831 149.363 71.6117C149.964 71.877 150.332 72.4673 150.4 73.0528C150.468 73.643 150.298 74.1991 150.078 74.6735C149.612 75.6196 148.998 76.3598 148.39 76.9246C147.778 77.4883 147.174 77.883 146.656 78.1515C146.138 78.4212 145.711 78.5783 145.418 78.6688C145.273 78.7172 145.158 78.7414 145.082 78.762C145.006 78.781 144.966 78.789 144.966 78.7854C144.965 78.7818 145.002 78.7671 145.076 78.7414C145.15 78.714 145.262 78.683 145.405 78.6283C145.691 78.5256 146.11 78.357 146.617 78.0789C147.124 77.802 147.714 77.4018 148.309 76.8382C148.9 76.2749 149.498 75.5351 149.943 74.6105C150.152 74.1484 150.306 73.6168 150.238 73.0722C150.175 72.5407 149.826 72.0004 149.296 71.7731C149.033 71.6636 148.729 71.6549 148.455 71.7691C148.18 71.8774 147.939 72.0833 147.741 72.3253C147.355 72.8215 147.077 73.4395 146.981 74.1039C146.768 75.424 147.197 76.9409 148.256 77.9516C149.316 78.9635 150.982 79.3245 152.479 78.9262C153.229 78.7291 153.918 78.3451 154.452 77.8128C154.989 77.2812 155.371 76.6208 155.606 75.9274C155.83 75.2305 155.915 74.5002 155.84 73.7993C155.806 73.449 155.734 73.1055 155.621 72.7806C155.519 72.4522 155.373 72.1416 155.174 71.8806C154.978 71.6208 154.711 71.4177 154.406 71.3614C154.105 71.2987 153.787 71.3757 153.528 71.5403C153 71.8683 152.649 72.4276 152.477 72.9869C152.13 74.1408 152.294 75.3205 152.702 76.2511C153.113 77.1928 153.793 77.8822 154.488 78.3015C155.186 78.7251 155.882 78.9159 156.452 78.9833C157.606 79.1114 158.233 78.8465 158.235 78.8865Z" fill="#FAFAFA"/>
<path d="M159.837 55.0867C159.386 54.5389 159.06 53.8904 158.889 53.2025C158.833 52.9768 158.793 52.7361 158.864 52.5139C158.934 52.2922 159.144 52.099 159.375 52.1208C159.613 52.1434 159.775 52.3652 159.902 52.5675C160.276 53.1601 160.638 53.7662 160.881 54.4231C160.948 54.6044 161.006 54.794 160.995 54.9867C160.984 55.1795 160.891 55.3779 160.72 55.4671C160.532 55.5647 160.294 55.5103 160.123 55.387C159.951 55.264 159.831 55.0831 159.715 54.9062" fill="#995037"/>
<path d="M160.857 54.6429C160.507 53.911 160.158 53.1792 159.808 52.4469C159.704 52.2296 159.598 52.0043 159.591 51.7635C159.584 51.5227 159.702 51.2609 159.928 51.1772C160.125 51.1042 160.352 51.1855 160.509 51.3264C160.665 51.4668 160.764 51.658 160.86 51.8448C161.025 52.1657 161.19 52.4866 161.355 52.8075C161.49 53.0697 161.627 53.3363 161.682 53.6262C161.737 53.9158 161.701 54.2367 161.517 54.4676C161.334 54.6984 160.983 54.8043 160.729 54.6544" fill="#995037"/>
<path d="M156.196 61.4408C156.196 61.4408 154.736 59.5475 154.604 58.5495C154.473 57.5519 155.697 55.7816 158.319 55.3837C159.726 55.1703 160.551 54.778 161.014 54.4603C161.346 54.2322 161.475 53.8093 161.321 53.4369C160.977 52.6007 160.356 51.0493 160.403 50.8415C160.525 50.306 160.874 50.3167 161.782 51.6431C162.689 52.9692 163.734 54.3159 163.532 54.9267C163.331 55.5376 160.134 57.4297 160.134 57.4297L161.008 58.8387L156.196 61.4408Z" fill="#B77153"/>
<path d="M164.867 80.8905L154.803 61.1749L161.283 57.5435L174.896 79.1245C174.896 79.1245 175.615 80.5033 176.618 82.1178H165.206" fill="#455A64"/>
<path d="M161.179 57.5435C161.181 57.5479 161.143 57.5744 161.067 57.6224C160.976 57.6776 160.864 57.7454 160.727 57.8287C160.407 58.0151 159.97 58.2694 159.424 58.5879C158.275 59.2424 156.667 60.1583 154.744 61.2543L154.78 61.1345C155.759 63.131 157.031 65.4388 158.314 67.9477C160.223 71.6585 161.873 75.0571 163.033 77.5323C163.615 78.7695 164.074 79.7759 164.387 80.4736C164.533 80.8088 164.651 81.0769 164.74 81.28C164.819 81.4653 164.857 81.5641 164.85 81.5672C164.844 81.5704 164.793 81.4776 164.702 81.2979C164.604 81.0992 164.474 80.8366 164.312 80.5085C163.968 79.8005 163.488 78.8112 162.899 77.597C161.704 75.1392 160.034 71.7533 158.126 68.0445C156.845 65.5391 155.581 63.2242 154.618 61.2162L154.581 61.1373L154.655 61.0961C156.594 60.0274 158.214 59.1341 159.372 58.4959C159.929 58.1956 160.374 57.956 160.7 57.7807C160.842 57.7073 160.959 57.647 161.053 57.5986C161.133 57.5578 161.176 57.5395 161.179 57.5435Z" fill="#263238"/>
<path d="M134.498 82.6442C134.451 82.6708 133.887 81.7061 133.421 80.4138C132.951 79.1226 132.767 78.0207 132.821 78.0104C132.881 77.9965 133.155 79.0659 133.62 80.3416C134.08 81.6189 134.554 82.6161 134.498 82.6442Z" fill="#263238"/>
<path d="M156.663 53.577C158.247 54.1998 160.211 53.6627 161.257 52.3204C162.304 50.9781 162.346 48.9428 161.357 47.5584C163.629 46.9832 165.046 44.362 164.586 42.0634C164.126 39.7651 162.073 37.9706 159.782 37.4739C158.906 37.2839 157.977 37.2629 157.124 37.5414C156.272 37.8202 155.505 38.422 155.142 39.2423" fill="#263238"/>
<path d="M156.344 48.4375C156.351 48.4617 156.047 48.5148 155.568 48.7659C155.099 49.0135 154.443 49.5188 154.05 50.401C153.86 50.8369 153.733 51.3589 153.763 51.9194C153.797 52.4756 153.953 53.0745 154.304 53.5977C154.471 53.8631 154.687 54.1067 154.938 54.3181C155.185 54.5335 155.472 54.7147 155.786 54.846C156.41 55.1237 157.145 55.1923 157.852 55.038C158.556 54.8702 159.188 54.4894 159.629 53.9682C159.855 53.7132 160.035 53.4252 160.165 53.1237C160.298 52.8242 160.387 52.5113 160.422 52.1995C160.511 51.5759 160.392 50.9682 160.181 50.453C159.965 49.9349 159.624 49.5196 159.263 49.2094C158.526 48.5855 157.716 48.4149 157.185 48.3958C156.645 48.3784 156.348 48.4625 156.344 48.4375C156.343 48.4304 156.416 48.4101 156.557 48.3784C156.697 48.3439 156.911 48.3145 157.187 48.3141C157.731 48.3082 158.577 48.4585 159.359 49.0948C159.742 49.4109 160.107 49.8409 160.342 50.3831C160.572 50.9222 160.704 51.5624 160.616 52.2237C160.581 52.5541 160.49 52.8865 160.35 53.205C160.215 53.5255 160.026 53.8322 159.786 54.1039C159.32 54.6592 158.647 55.067 157.899 55.2443C157.149 55.4089 156.366 55.3335 155.704 55.036C155.371 54.8948 155.067 54.7013 154.807 54.4712C154.542 54.2451 154.316 53.9853 154.141 53.7028C153.775 53.1455 153.615 52.5117 153.589 51.9262C153.565 51.3359 153.707 50.7901 153.915 50.3387C154.343 49.4256 155.039 48.9226 155.531 48.6922C155.78 48.5724 155.986 48.5061 156.127 48.476C156.268 48.4438 156.343 48.4304 156.344 48.4375Z" fill="#5E81FF"/>
<path d="M158.063 42.1862C159.704 42.0938 161.216 40.849 161.622 39.2552C162.028 37.6614 161.295 35.8451 159.898 34.9788C160.574 33.0803 159.909 30.7844 158.323 29.5405C156.737 28.2969 154.349 28.1989 152.666 29.3084C151.38 27.0538 148.627 25.7352 146.065 26.1458C143.502 26.5563 141.299 28.669 140.782 31.2128C138.476 30.2604 135.611 30.8737 133.897 32.6864C132.182 34.4992 131.73 37.3933 132.809 39.6428C130.301 39.8597 128.215 42.3369 128.428 44.8454C128.642 47.354 131.115 49.4436 133.624 49.2338C133.113 50.9002 133.756 52.8561 135.156 53.8934C136.557 54.9307 138.616 54.9759 140.06 54.0005C140.982 55.4896 142.801 56.3706 144.541 56.1707C146.28 55.9708 147.852 54.7002 148.412 53.041" fill="#263238"/>
<path d="M153.289 60.7956C153.371 58.8643 153.475 57.1157 153.475 57.1157C153.475 57.1157 157.793 56.5711 157.979 52.1646C158.165 47.7576 157.726 37.6109 157.726 37.6109L149.78 33.7949L141.231 40.6822L142.571 60.9206C142.765 63.8365 145.255 66.0622 148.175 65.9269C150.951 65.7988 153.17 63.5719 153.289 60.7956Z" fill="#B77153"/>
<path d="M157.515 45.1587C157.445 45.2329 157.034 44.8858 156.442 44.8636C155.851 44.8322 155.411 45.1408 155.349 45.0607C155.318 45.025 155.389 44.8894 155.581 44.7497C155.769 44.6105 156.089 44.4804 156.457 44.4971C156.826 44.5141 157.134 44.672 157.309 44.8279C157.489 44.9842 157.549 45.1254 157.515 45.1587Z" fill="#263238"/>
<path d="M150.963 45.1587C150.894 45.2329 150.482 44.8858 149.89 44.8636C149.299 44.8322 148.86 45.1408 148.797 45.0607C148.766 45.025 148.837 44.8894 149.029 44.7497C149.218 44.6105 149.537 44.4804 149.906 44.4971C150.274 44.5141 150.582 44.672 150.758 44.8279C150.937 44.9842 150.997 45.1254 150.963 45.1587Z" fill="#263238"/>
<path d="M153.184 49.6014C153.182 49.5654 153.551 49.5122 154.148 49.4547C154.3 49.444 154.443 49.4178 154.471 49.3083C154.508 49.1929 154.447 49.016 154.377 48.8248C154.241 48.4273 154.099 48.0112 153.95 47.5749C153.357 45.7958 152.93 44.3357 152.997 44.3123C153.063 44.2889 153.598 45.7117 154.191 47.4908C154.333 47.9291 154.47 48.3472 154.599 48.7474C154.654 48.9335 154.749 49.1461 154.668 49.3857C154.626 49.5047 154.513 49.588 154.416 49.6122C154.319 49.6399 154.233 49.6383 154.159 49.6399C153.558 49.6494 153.186 49.6375 153.184 49.6014Z" fill="#263238"/>
<path d="M153.475 57.1161C153.475 57.1161 150.588 57.199 147.759 55.2446C147.759 55.2446 149.102 58.4545 153.4 58.1978L153.475 57.1161Z" fill="#995037"/>
<path d="M147.342 34.0414C145.933 35.9902 145.968 38.8613 147.423 40.776C148.063 41.6193 149.032 42.3048 150.091 42.2663C151.149 42.2278 152.174 41.2246 151.949 40.1893C151.536 41.4844 152.638 43.0211 153.997 43.0453C155.357 43.0695 156.513 41.5729 156.146 40.2639C156.254 40.7344 156.369 41.2163 156.64 41.6157C156.91 42.0152 157.378 42.319 157.856 42.256C158.521 42.1683 158.906 41.4551 159.059 40.8026C159.513 38.8514 158.794 36.709 157.361 35.3091C155.928 33.9093 153.855 33.2421 151.856 33.3782C149.857 33.5142 147.947 34.4139 146.448 35.7435" fill="#263238"/>
<path d="M147.902 35.5957C148.417 36.8543 148.804 38.1895 148.79 39.5493C148.776 40.9091 148.326 42.3021 147.361 43.2605C146.397 44.2188 144.878 44.6591 143.613 44.1601C143.916 45.3497 143.807 46.6984 143.067 47.6782C142.328 48.6579 140.877 49.1268 139.8 48.537C138.827 48.0034 138.406 46.823 138.272 45.721C137.948 43.0554 138.891 40.2637 140.765 38.3406C142.639 36.4176 145.406 35.4029 148.079 35.6584" fill="#263238"/>
<path d="M142.452 46.0947C141.865 45.7321 141.062 46.0304 140.596 46.5393C139.862 47.3402 139.734 48.6341 140.297 49.5631C140.86 50.4921 142.067 50.9772 143.116 50.6972" fill="#B77153"/>
<path d="M142.317 49.377C142.316 49.402 142.121 49.4301 141.817 49.3441C141.527 49.2631 141.081 49.0291 140.911 48.5341C140.827 48.2945 140.843 48.0323 140.935 47.8304C141.025 47.6273 141.169 47.4869 141.301 47.3968C141.572 47.2175 141.781 47.2243 141.782 47.2469C141.792 47.2802 141.606 47.3286 141.393 47.515C141.177 47.6904 140.965 48.064 141.111 48.4662C141.246 48.8661 141.608 49.0922 141.867 49.2028C142.134 49.3175 142.32 49.3441 142.317 49.377Z" fill="#995037"/>
<path d="M151.327 43.3176C151.272 43.4889 150.627 43.4263 149.861 43.46C149.094 43.4834 148.456 43.5941 148.388 43.4271C148.316 43.2728 148.943 42.857 149.837 42.8261C150.731 42.7908 151.386 43.1581 151.327 43.3176Z" fill="#263238"/>
<path d="M157.5 43.1959C157.433 43.2566 157.3 43.2169 157.146 43.1781C156.987 43.1392 156.839 43.1198 156.608 43.144C156.377 43.1666 156.124 43.2074 155.931 43.2038C155.737 43.2019 155.601 43.1602 155.577 43.0761C155.552 42.992 155.639 42.8833 155.803 42.7739C155.969 42.668 156.212 42.5482 156.551 42.5125C156.893 42.4645 157.263 42.6259 157.403 42.8104C157.554 42.9908 157.562 43.1412 157.5 43.1959Z" fill="#263238"/>
<path d="M152.158 50.73C152.491 50.5313 152.907 50.4392 153.271 50.5721C153.636 50.7054 153.91 51.1033 153.824 51.4813C153.778 51.6875 153.636 51.8617 153.467 51.9886C153.207 52.1838 152.867 52.2806 152.549 52.2135C152.231 52.1465 151.947 51.9037 151.866 51.5892C151.784 51.2746 151.932 50.9061 152.224 50.7633" fill="#995037"/>
<path d="M154.322 51.2005C154.332 51.2239 154.181 51.3255 153.897 51.3865C153.617 51.4484 153.196 51.4508 152.78 51.2775C152.363 51.1037 152.069 50.8034 151.915 50.5611C151.759 50.3163 151.724 50.1378 151.748 50.1287C151.778 50.1156 151.86 50.2675 152.035 50.4718C152.208 50.6757 152.489 50.9272 152.861 51.0823C153.234 51.2374 153.61 51.2596 153.876 51.2386C154.144 51.2188 154.31 51.17 154.322 51.2005Z" fill="#263238"/>
<path d="M145.376 53.3022C145.351 53.3038 145.367 52.9956 145.229 52.4728C145.092 51.9599 144.745 51.2078 143.973 50.6287C143.59 50.3459 143.109 50.1059 142.557 50.0111C142.007 49.9195 141.388 49.9389 140.8 50.1646C140.504 50.2681 140.219 50.4244 139.957 50.6216C139.691 50.8147 139.451 51.0539 139.253 51.3312C138.843 51.8774 138.612 52.5787 138.605 53.3018C138.612 54.025 138.843 54.7267 139.252 55.2733C139.451 55.5505 139.691 55.7901 139.956 55.9833C140.219 56.1804 140.504 56.3367 140.8 56.4403C141.388 56.666 142.008 56.6854 142.557 56.5938C143.11 56.4986 143.591 56.259 143.973 55.9762C144.746 55.3966 145.093 54.6449 145.229 54.1321C145.367 53.6089 145.351 53.3006 145.376 53.3022C145.384 53.3022 145.387 53.3776 145.387 53.5228C145.389 53.6672 145.37 53.8826 145.309 54.1519C145.194 54.683 144.859 55.474 144.064 56.0948C143.671 56.3982 143.17 56.658 142.589 56.7659C142.012 56.8702 141.359 56.8568 140.734 56.6231C140.419 56.5156 140.116 56.3522 139.837 56.1451C139.554 55.9421 139.298 55.689 139.086 55.3954C138.649 54.8171 138.401 54.0702 138.394 53.3014C138.401 52.5331 138.649 51.7866 139.086 51.2082C139.298 50.9147 139.555 50.662 139.837 50.4589C140.116 50.2519 140.42 50.0888 140.734 49.9813C141.359 49.7481 142.013 49.7342 142.589 49.8385C143.17 49.9464 143.671 50.2062 144.065 50.5097C144.859 51.1305 145.194 51.9214 145.31 52.4526C145.371 52.7219 145.39 52.9369 145.388 53.0817C145.387 53.2269 145.384 53.3022 145.376 53.3022Z" fill="#5E81FF"/>
<path d="M157.498 33.5825C157.499 33.5773 157.537 33.5864 157.608 33.6094C157.676 33.6384 157.779 33.6864 157.884 33.7875C158.095 33.9775 158.331 34.3976 158.239 34.9438C158.152 35.4948 157.596 36.022 156.866 36.16C156.124 36.3155 155.291 36.0366 154.542 35.6043L153.723 35.1318L154.621 35.427C154.929 35.5281 155.151 35.8141 155.228 36.1227C155.309 36.4317 155.274 36.7788 155.102 37.0715C154.924 37.3651 154.621 37.5571 154.295 37.6431C153.968 37.7292 153.618 37.7165 153.29 37.6209C152.484 37.3706 151.963 36.7149 151.563 36.1291L150.989 35.2889L151.719 35.997C152.135 36.4012 152.228 37.0037 152.111 37.4964C151.999 37.9989 151.649 38.419 151.229 38.6134C150.379 39.0196 149.472 38.7653 148.972 38.3381C148.45 37.9109 148.227 37.402 148.117 37.0652C148.061 36.8938 148.037 36.7562 148.022 36.6642C148.011 36.5709 148.008 36.5221 148.015 36.5214C148.032 36.5182 148.057 36.7126 148.184 37.0418C148.312 37.3639 148.548 37.8454 149.053 38.2346C149.534 38.6245 150.384 38.8347 151.149 38.4547C151.527 38.2714 151.823 37.9037 151.923 37.4531C152.023 37.01 151.93 36.4821 151.578 36.1461L151.733 36.014C152.127 36.588 152.632 37.1985 153.35 37.4182C153.928 37.5967 154.629 37.4456 154.925 36.9652C155.214 36.4972 155.042 35.7728 154.56 35.6126L154.639 35.4353C155.369 35.8657 156.153 36.1314 156.836 36.0001C157.516 35.8835 158.031 35.4115 158.124 34.9216C158.225 34.427 158.025 34.0239 157.841 33.8331C157.651 33.6301 157.488 33.6007 157.498 33.5825Z" fill="#455A64"/>
<path d="M146.93 40.6686C146.933 40.6714 146.915 40.6976 146.877 40.7456C146.84 40.7944 146.779 40.8614 146.692 40.9431C146.518 41.1038 146.232 41.3216 145.806 41.4699C145.387 41.6175 144.81 41.6936 144.202 41.4969C143.602 41.3073 142.975 40.8507 142.627 40.1347L142.793 40.1113C142.651 41.0308 141.898 41.9614 140.808 42.2121C139.73 42.4588 138.427 41.8856 137.921 40.7543C137.475 39.7389 137.767 38.5397 138.478 37.8555L138.615 38.0058C138.131 38.4124 137.521 38.606 136.947 38.6095C136.371 38.6199 135.822 38.4596 135.381 38.1827C134.94 37.9051 134.612 37.504 134.443 37.0812C134.27 36.6587 134.222 36.2319 134.247 35.8547C134.301 35.0915 134.63 34.5453 134.899 34.2422C135.175 33.9356 135.383 33.8408 135.383 33.8408C135.396 33.8571 135.204 33.9753 134.952 34.2871C134.707 34.5953 134.41 35.1316 134.376 35.8622C134.361 36.2232 134.415 36.6278 134.585 37.0209C134.751 37.4148 135.06 37.7793 135.473 38.034C135.888 38.2871 136.404 38.4326 136.943 38.4176C137.481 38.41 138.042 38.2236 138.482 37.8515L138.62 38.0019C137.973 38.6266 137.705 39.7448 138.115 40.6686C138.57 41.6988 139.782 42.2383 140.764 42.0149C141.765 41.7936 142.48 40.9304 142.62 40.0832L142.666 39.8039L142.786 40.0598C143.1 40.7285 143.683 41.1712 144.246 41.3612C144.816 41.5584 145.365 41.5016 145.774 41.3735C146.189 41.245 146.476 41.0475 146.657 40.9027C146.838 40.7555 146.921 40.6603 146.93 40.6686Z" fill="#455A64"/>
<path d="M139.062 47.7249C139.067 47.7317 138.958 47.8245 138.719 47.9292C138.482 48.0308 138.103 48.1402 137.621 48.1006C137.148 48.0633 136.554 47.8606 136.107 47.3616C135.665 46.8769 135.374 46.1208 135.511 45.3271L135.692 45.4076C135.325 45.8911 134.819 46.3354 134.202 46.6238C133.741 46.8384 133.241 46.9487 132.757 46.932C132.274 46.9141 131.814 46.784 131.428 46.5671C130.636 46.147 130.193 45.358 130.164 44.69C130.114 44.0161 130.354 43.4933 130.573 43.2017C130.688 43.0562 130.792 42.957 130.869 42.8987C130.947 42.8416 130.99 42.815 130.994 42.8205C131.008 42.8368 130.839 42.9538 130.64 43.2485C130.451 43.5421 130.247 44.0458 130.313 44.6762C130.361 45.3009 130.779 46.0105 131.521 46.3957C132.247 46.7987 133.244 46.8527 134.114 46.4318C134.695 46.1605 135.177 45.7408 135.531 45.2838L135.787 44.9522L135.712 45.3644C135.581 46.0827 135.838 46.7888 136.239 47.2454C136.642 47.7138 137.186 47.9189 137.635 47.9721C138.09 48.0268 138.457 47.9427 138.695 47.8642C138.933 47.7832 139.054 47.7114 139.062 47.7249Z" fill="#455A64"/>
<path d="M161.525 39.131C161.547 39.125 161.645 39.4007 161.613 39.864C161.585 40.3198 161.387 40.9707 160.89 41.4923C160.391 42.0127 159.749 42.2396 159.295 42.288C158.834 42.3408 158.554 42.2551 158.559 42.2333C158.562 42.198 158.842 42.2277 159.271 42.1405C159.696 42.0576 160.279 41.8239 160.737 41.3459C161.193 40.8672 161.401 40.2745 161.465 39.8465C161.533 39.4138 161.491 39.1357 161.525 39.131Z" fill="#455A64"/>
<path d="M163.952 43.2838C163.963 43.2802 164.016 43.3814 164.052 43.5845C164.086 43.7852 164.1 44.0966 163.97 44.4543C163.846 44.7998 163.538 45.2251 163.01 45.3369C162.756 45.3921 162.472 45.3746 162.206 45.2679C161.941 45.1668 161.692 44.951 161.575 44.6551L161.774 44.588C161.805 44.7098 161.829 44.8431 161.824 44.9775C161.806 45.6396 161.358 46.1945 160.829 46.3909C160.563 46.4885 160.28 46.4881 160.041 46.4234C159.8 46.356 159.6 46.2326 159.444 46.0954C159.129 45.8181 159 45.4873 158.964 45.2635C158.929 45.0355 158.966 44.9105 158.975 44.9121C158.994 44.9125 158.987 45.0378 159.044 45.2453C159.101 45.45 159.242 45.7435 159.54 45.9811C159.826 46.2195 160.3 46.3901 160.76 46.2088C161.209 46.0347 161.6 45.5361 161.612 44.974C161.618 44.8597 161.596 44.7487 161.572 44.6467L161.771 44.5797C161.96 45.0585 162.545 45.2409 162.971 45.1513C163.417 45.0704 163.705 44.7134 163.836 44.4012C163.972 44.0803 163.982 43.7875 163.973 43.5928C163.963 43.3968 163.937 43.2885 163.952 43.2838Z" fill="#455A64"/>
<path d="M151.855 49.178C151.882 49.1819 151.899 49.2684 151.864 49.4025C151.831 49.5358 151.733 49.7103 151.569 49.8464C151.405 49.982 151.215 50.0455 151.078 50.0542C150.939 50.0637 150.858 50.0304 150.859 50.0034C150.86 49.9435 151.165 49.9146 151.434 49.6837C151.711 49.462 151.796 49.1681 151.855 49.178Z" fill="#263238"/>
<path d="M246.401 162.945C245.411 164.36 243.486 163.891 242.594 163.028C241.702 162.165 241.324 160.914 240.981 159.72C240.197 156.994 239.406 154.134 239.989 151.358C240.164 150.528 240.474 149.7 241.057 149.085C241.64 148.469 242.537 148.102 243.357 148.319C244.327 148.575 244.931 149.526 245.367 150.43C246.648 153.088 247.327 156.034 247.337 158.985C247.341 160.363 247.178 161.808 246.401 162.945Z" fill="#5E81FF"/>
<g opacity="0.2">
<path d="M246.401 162.945C245.411 164.36 243.486 163.891 242.594 163.028C241.702 162.165 241.324 160.914 240.981 159.72C240.197 156.994 239.406 154.134 239.989 151.358C240.164 150.528 240.474 149.7 241.057 149.085C241.64 148.469 242.537 148.102 243.357 148.319C244.327 148.575 244.931 149.526 245.367 150.43C246.648 153.088 247.327 156.034 247.337 158.985C247.341 160.363 247.178 161.808 246.401 162.945Z" fill="black"/>
</g>
<path d="M242.691 170.108C241.071 169.272 239.165 169.164 237.367 169.461C236.401 169.621 235.393 169.91 234.736 170.635C234.079 171.361 233.954 172.638 234.709 173.261C235.159 173.632 235.785 173.689 236.368 173.682C237.775 173.666 239.337 173.418 240.461 174.265C241.103 174.748 241.53 175.551 242.297 175.789C243.048 176.021 243.894 175.579 244.292 174.901C244.69 174.224 244.704 173.377 244.518 172.614C244.518 172.614 244.322 170.95 242.691 170.108Z" fill="#5E81FF"/>
<path d="M249.121 164.976C248.045 163.699 247.841 161.838 248.32 160.24C248.798 158.641 249.879 157.281 251.124 156.171C252.585 154.869 254.302 153.856 256.147 153.207C256.874 152.952 257.64 152.75 258.406 152.823C259.173 152.897 259.945 153.288 260.302 153.97C260.831 154.979 260.324 156.201 259.776 157.199C258.81 158.956 257.706 160.638 256.477 162.223C255.488 163.498 254.355 164.755 252.848 165.331C251.341 165.907 249.775 165.839 248.977 164.795" fill="#5E81FF"/>
<path d="M246.468 184.281C246.45 184.283 246.419 184.053 246.379 183.639C246.333 183.171 246.276 182.584 246.208 181.885C246.126 181.147 246.018 180.269 245.813 179.312C245.609 178.358 245.289 177.324 244.878 176.276C244.453 175.233 243.934 174.286 243.328 173.529C242.726 172.767 242.025 172.217 241.367 171.899C240.711 171.575 240.123 171.443 239.716 171.385C239.306 171.343 239.077 171.31 239.077 171.293C239.077 171.274 239.306 171.271 239.728 171.283C240.145 171.31 240.758 171.416 241.45 171.73C242.143 172.038 242.886 172.598 243.517 173.374C244.154 174.148 244.691 175.116 245.125 176.177C245.543 177.244 245.858 178.289 246.053 179.263C246.248 180.236 246.337 181.124 246.395 181.868C246.451 182.613 246.472 183.216 246.482 183.633C246.491 184.049 246.486 184.28 246.468 184.281Z" fill="#263238"/>
<path d="M246.347 182.931C246.338 182.931 246.333 182.828 246.33 182.633C246.331 182.409 246.332 182.127 246.333 181.78C246.335 181.04 246.334 179.969 246.295 178.647C246.229 176.002 246.001 172.35 245.562 168.337C245.118 164.323 244.531 160.712 243.996 158.121C243.869 157.472 243.742 156.887 243.622 156.376C243.508 155.863 243.41 155.421 243.316 155.063C243.235 154.726 243.169 154.452 243.117 154.234C243.074 154.043 243.055 153.942 243.064 153.939C243.073 153.937 243.109 154.033 243.168 154.219C243.233 154.434 243.314 154.704 243.415 155.036C243.525 155.391 243.638 155.83 243.766 156.341C243.9 156.851 244.04 157.434 244.179 158.082C244.763 160.669 245.381 164.285 245.825 168.308C246.265 172.33 246.464 175.992 246.481 178.643C246.497 179.969 246.469 181.043 246.435 181.783C246.414 182.129 246.397 182.411 246.383 182.636C246.369 182.83 246.356 182.932 246.347 182.931Z" fill="#263238"/>
<path d="M246.329 175.869C246.311 175.868 246.314 175.551 246.336 174.978C246.369 174.405 246.447 173.578 246.609 172.564C246.78 171.553 247.018 170.353 247.394 169.048C247.751 167.739 248.241 166.325 248.864 164.887C250.084 161.994 251.741 159.628 253.182 158.163C253.52 157.774 253.897 157.493 254.198 157.219C254.354 157.087 254.491 156.955 254.632 156.851C254.773 156.754 254.904 156.664 255.026 156.58C255.501 156.255 255.766 156.084 255.776 156.1C255.819 156.158 254.714 156.808 253.318 158.293C251.928 159.774 250.317 162.123 249.108 164.992C248.49 166.418 247.996 167.818 247.629 169.115C247.243 170.407 246.987 171.595 246.793 172.597C246.609 173.6 246.503 174.419 246.439 174.986C246.386 175.555 246.348 175.869 246.329 175.869Z" fill="#263238"/>
<path d="M107.008 16.5094C107.008 16.515 106.915 16.5269 106.733 16.5435C106.536 16.5598 106.268 16.5828 105.924 16.6114C105.567 16.6217 105.134 16.7042 104.623 16.8002C104.369 16.8545 104.087 16.8783 103.801 16.9668C103.513 17.0505 103.206 17.1389 102.883 17.2325C101.605 17.6518 100.068 18.3123 98.5257 19.4559C96.9874 20.5907 95.4543 22.2063 94.2686 24.3039C93.6447 25.3356 93.1968 26.5241 92.7966 27.772C92.4741 29.0417 92.1909 30.3896 92.1845 31.8069C92.1294 32.5141 92.2091 33.2313 92.2472 33.9604C92.2706 34.3249 92.3531 34.6855 92.4039 35.0524C92.4582 35.4193 92.5162 35.7886 92.6248 36.1504C92.9426 37.624 93.5606 39.0651 94.3376 40.4443C95.891 43.2126 98.4757 45.5835 101.65 46.9385C103.238 47.618 104.989 47.9738 106.766 48.0266C108.546 48.119 110.364 47.8128 112.085 47.1991L112.605 47.0016L112.674 46.9754L112.737 47.0063C115.308 48.2753 117.83 49.5196 120.274 50.7255L120.054 50.9183C119.225 48.4439 118.422 46.0444 117.651 43.7426L117.622 43.6537L117.687 43.5867C119.554 41.674 120.844 39.361 121.547 37.0004C122.251 34.6323 122.349 32.2285 122.038 30.0298C121.728 27.8263 120.984 25.8279 120.003 24.15C119.022 22.4674 117.811 21.1052 116.572 20.0453C115.319 18.9929 114.023 18.2849 112.864 17.7446C111.677 17.2639 110.62 16.9592 109.743 16.8002C109.305 16.7308 108.915 16.6689 108.575 16.6149C108.238 16.5951 107.952 16.5784 107.715 16.5646C107.493 16.5499 107.319 16.5388 107.188 16.53C107.069 16.5209 107.008 16.5142 107.008 16.5094C107.008 16.5051 107.069 16.5031 107.188 16.5035C107.32 16.5058 107.494 16.5086 107.717 16.5126C107.956 16.5193 108.244 16.5277 108.583 16.538C108.926 16.5852 109.319 16.6391 109.762 16.6998C110.648 16.8442 111.718 17.1362 112.923 17.6082C114.1 18.1397 115.417 18.8438 116.695 19.8989C117.958 20.9612 119.195 22.3337 120.2 24.0342C121.205 25.7303 121.972 27.7557 122.297 29.9929C122.622 32.225 122.532 34.6692 121.823 37.0817C121.115 39.4867 119.807 41.8473 117.906 43.8009L117.942 43.645C118.716 45.9457 119.523 48.3435 120.355 50.8171L120.476 51.1789L120.134 51.0103C117.689 49.8056 115.167 48.5629 112.595 47.2955L112.726 47.3003L112.194 47.5026C110.436 48.1297 108.576 48.4419 106.757 48.3471C104.941 48.2919 103.151 47.9254 101.529 47.2301C98.2869 45.8421 95.6574 43.4169 94.0818 40.5934C93.2932 39.1865 92.6697 37.7172 92.3504 36.2166C92.2417 35.8485 92.1838 35.4729 92.1298 35.0992C92.0794 34.7259 91.9969 34.3586 91.9743 33.9881C91.9378 33.2468 91.8605 32.5173 91.9188 31.7993C91.9315 30.3594 92.2242 28.9905 92.559 27.7033C92.9715 26.4376 93.4329 25.2349 94.0719 24.1917C95.2873 22.0711 96.8529 20.4459 98.4201 19.3115C99.9905 18.1679 101.552 17.5181 102.847 17.1135C103.174 17.0243 103.484 16.9394 103.776 16.8601C104.066 16.776 104.35 16.7561 104.607 16.7066C105.123 16.6193 105.56 16.5467 105.92 16.5471C106.265 16.5316 106.535 16.5197 106.732 16.511C106.914 16.5043 107.008 16.5039 107.008 16.5094Z" fill="#263238"/>
<path d="M110.555 30.3442L109.457 30.3569L107.022 27.0443L106.997 24.8523C106.997 24.8523 105.299 24.767 105.531 27.6353C105.764 30.5032 105.539 29.775 105.539 29.775C105.539 29.775 101.935 29.8297 101.639 30.1462C101.424 30.3763 101.367 33.9574 101.351 35.8991C101.343 36.8769 101.953 37.7789 102.864 37.9994C102.994 38.0308 103.125 38.0486 103.253 38.047C104.152 38.0367 108.736 37.2537 108.736 37.2537L110.633 37.2323L110.555 30.3442Z" fill="#5E81FF"/>
<path d="M113.691 29.7065L113.101 37.225L111.22 37.2464L111.137 29.887L113.691 29.7065Z" fill="#5E81FF"/>
</svg>
