<svg width="24" height="24" viewBox="0 0 24 24" fill="none" xmlns="http://www.w3.org/2000/svg">
<path d="M15.6947 12.6947C15.8822 12.5072 15.9875 12.2529 15.9875 11.9877C15.9875 11.7225 15.8822 11.4682 15.6947 11.2807L9.69471 5.28071C9.50611 5.09855 9.25351 4.99776 8.99131 5.00004C8.72911 5.00232 8.4783 5.10749 8.29289 5.29289C8.10749 5.4783 8.00232 5.72911 8.00004 5.99131C7.99776 6.25351 8.09855 6.50611 8.28071 6.69471L13.5737 11.9877L8.28071 17.2807C8.09855 17.4693 7.99776 17.7219 8.00004 17.9841C8.00232 18.2463 8.10749 18.4971 8.29289 18.6825C8.4783 18.8679 8.72911 18.9731 8.99131 18.9754C9.25351 18.9777 9.50611 18.8769 9.69471 18.6947L15.6947 12.6947Z" fill="#5E81FF"/>
</svg>
