<svg width="24" height="24" viewBox="0 0 24 24" fill="none" xmlns="http://www.w3.org/2000/svg">
<path d="M8.30529 12.6947C8.11782 12.5072 8.0125 12.2529 8.0125 11.9877C8.0125 11.7225 8.11782 11.4682 8.30529 11.2807L14.3053 5.28071C14.4939 5.09855 14.7465 4.99776 15.0087 5.00004C15.2709 5.00232 15.5217 5.10749 15.7071 5.29289C15.8925 5.4783 15.9977 5.72911 16 5.99131C16.0022 6.25351 15.9014 6.50611 15.7193 6.69471L10.4263 11.9877L15.7193 17.2807C15.9014 17.4693 16.0022 17.7219 16 17.9841C15.9977 18.2463 15.8925 18.4971 15.7071 18.6825C15.5217 18.8679 15.2709 18.9731 15.0087 18.9754C14.7465 18.9777 14.4939 18.8769 14.3053 18.6947L8.30529 12.6947Z" fill="#E7ECFD"/>
</svg>
